<?xml version="1.0" encoding="UTF-8" standalone="no"?>
<!DOCTYPE svg PUBLIC "-//W3C//DTD SVG 1.1//EN" "http://www.w3.org/Graphics/SVG/1.1/DTD/svg11.dtd">
<svg width="100%" height="100%" viewBox="0 0 1280 720" version="1.1" xmlns="http://www.w3.org/2000/svg" xmlns:xlink="http://www.w3.org/1999/xlink" xml:space="preserve" xmlns:serif="http://www.serif.com/" style="fill-rule:evenodd;clip-rule:evenodd;stroke-miterlimit:8;">
    <g>
        <clipPath id="_clip1">
            <rect x="0" y="0" width="1280" height="720"/>
        </clipPath>
        <g clip-path="url(#_clip1)">
            <rect x="0" y="0" width="1280" height="720" style="fill:white;"/>
            <path d="M192,323C192,184.377 304.377,72 443,72C581.623,72 694,184.377 694,323C694,461.623 581.623,574 443,574C304.377,574 192,461.623 192,323Z" style="fill:rgb(255,230,153);fill-opacity:0.74;"/>
            <path d="M496,485C496,395.53 568.53,323 658,323C747.47,323 820,395.53 820,485C820,574.47 747.47,647 658,647C568.53,647 496,574.47 496,485Z" style="fill:rgb(47,217,217);fill-opacity:0.74;"/>
            <path d="M574,300.5C574,143.927 700.927,17 857.5,17C1014.07,17 1141,143.927 1141,300.5C1141,457.073 1014.07,584 857.5,584C700.927,584 574,457.073 574,300.5Z" style="fill:rgb(255,102,255);fill-opacity:0.74;"/>
            <path d="M330,359.045L246,359.045L246,209.955L330,209.955L330,359.045ZM278.667,191.318L297.333,191.318C299.9,191.318 302,193.415 302,195.977C302,198.54 299.9,200.636 297.333,200.636L278.667,200.636C276.1,200.636 274,198.54 274,195.977C274,193.415 276.1,191.318 278.667,191.318ZM339.333,182L236.667,182C234.1,182 232,184.097 232,186.659L232,382.341C232,384.904 234.1,387 236.667,387L339.333,387C341.9,387 344,384.904 344,382.341L344,186.659C344,184.097 341.9,182 339.333,182Z"/>
            <path d="M814.125,612.182L730.875,612.182L730.875,463.818L814.125,463.818L814.125,612.182ZM763.25,445.273L781.75,445.273C784.294,445.273 786.375,447.359 786.375,449.909C786.375,452.459 784.294,454.545 781.75,454.545L763.25,454.545C760.706,454.545 758.625,452.459 758.625,449.909C758.625,447.359 760.706,445.273 763.25,445.273ZM823.375,436L721.625,436C719.081,436 717,438.086 717,440.636L717,635.364C717,637.914 719.081,640 721.625,640L823.375,640C825.919,640 828,637.914 828,635.364L828,440.636C828,438.086 825.919,436 823.375,436Z"/>
            <path d="M1107.12,194.045L1023.88,194.045L1023.88,44.955L1107.12,44.955L1107.12,194.045ZM1056.25,26.318L1074.75,26.318C1077.29,26.318 1079.38,28.415 1079.38,30.977C1079.38,33.54 1077.29,35.636 1074.75,35.636L1056.25,35.636C1053.71,35.636 1051.62,33.54 1051.62,30.977C1051.62,28.415 1053.71,26.318 1056.25,26.318ZM1116.38,17L1014.62,17C1012.08,17 1010,19.097 1010,21.659L1010,217.341C1010,219.904 1012.08,222 1014.62,222L1116.38,222C1118.92,222 1121,219.904 1121,217.341L1121,21.659C1121,19.097 1118.92,17 1116.38,17Z"/>
            <path d="M687.125,238.182L603.875,238.182L603.875,89.818L687.125,89.818L687.125,238.182ZM636.25,71.273L654.75,71.273C657.294,71.273 659.375,73.359 659.375,75.909C659.375,78.459 657.294,80.546 654.75,80.546L636.25,80.546C633.706,80.546 631.625,78.459 631.625,75.909C631.625,73.359 633.706,71.273 636.25,71.273ZM696.375,62L594.625,62C592.081,62 590,64.087 590,66.636L590,261.364C590,263.914 592.081,266 594.625,266L696.375,266C698.919,266 701,263.914 701,261.364L701,66.636C701,64.087 698.919,62 696.375,62Z"/>
            <rect x="0" y="0" width="232" height="720" style="fill:rgb(166,166,166);fill-opacity:0.65;"/>
            <rect x="232" y="387" width="485" height="333" style="fill:rgb(166,166,166);fill-opacity:0.65;"/>
            <rect x="717" y="640" width="563" height="80" style="fill:rgb(166,166,166);fill-opacity:0.65;"/>
            <rect x="828" y="222" width="452" height="418" style="fill:rgb(166,166,166);fill-opacity:0.65;"/>
            <rect x="1121" y="0" width="159" height="222" style="fill:rgb(166,166,166);fill-opacity:0.65;"/>
            <rect x="1010" y="0" width="113" height="17" style="fill:rgb(166,166,166);fill-opacity:0.65;"/>
            <rect x="701" y="-1" width="309" height="223" style="fill:rgb(166,166,166);fill-opacity:0.65;"/>
            <rect x="701" y="222" width="127" height="165" style="fill:rgb(166,166,166);fill-opacity:0.65;"/>
            <rect x="717" y="387" width="111" height="49" style="fill:rgb(166,166,166);fill-opacity:0.65;"/>
            <rect x="344" y="267" width="357" height="120" style="fill:rgb(166,166,166);fill-opacity:0.65;"/>
            <rect x="232" y="0" width="358" height="182" style="fill:rgb(166,166,166);fill-opacity:0.65;"/>
            <rect x="344" y="182" width="246" height="85" style="fill:rgb(166,166,166);fill-opacity:0.65;"/>
            <rect x="590" y="0" width="111" height="62" style="fill:rgb(166,166,166);fill-opacity:0.65;"/>
            <g>
                <g>
                    <g>
                        <path d="M686.786,627.774L686.815,627.774C687.275,627.774 698.229,627.575 703.622,624.725C703.668,624.699 703.716,624.671 703.76,624.642C705.995,623.002 708.099,621.19 710.052,619.223C710.404,618.888 710.744,618.565 711.076,618.252C713.103,618.917 715.21,619.306 717.341,619.41C717.734,619.428 718.128,619.438 718.518,619.438C720.638,619.433 722.748,619.154 724.797,618.608C725.077,618.869 725.36,619.136 725.665,619.424C727.525,621.253 729.496,622.968 731.565,624.558C736.575,628.186 749.105,625.454 750.518,625.131C751.113,624.989 751.566,624.507 751.671,623.906C751.774,623.296 751.505,622.683 750.987,622.345C750.955,622.325 747.851,620.231 745.856,612.345C745.202,609.786 746.335,604.653 747.54,599.219C748.856,594.144 749.659,588.95 749.935,583.715C749.935,575.944 747.638,571.185 742.715,568.741C740.179,567.756 737.399,567.588 734.763,568.262C733.385,566.41 729.719,562.512 722.039,560.118C713.743,557.837 704.878,558.98 697.432,563.291C691.022,567.426 687.947,572.05 687.805,587.094C687.746,593.437 688.12,599.344 688.451,604.561C688.896,608.876 688.971,613.222 688.673,617.549C688.316,620.367 687.245,623.047 685.561,625.334C685.06,626.015 685.205,626.974 685.886,627.475C686.147,627.667 686.462,627.772 686.786,627.774ZM717.482,616.351C706.533,615.755 697.769,607.046 697.104,596.101C697.066,595.361 697.066,594.619 697.104,593.878C697.176,592.321 698.43,591.08 699.987,591.025C701.09,591.007 702.189,590.905 703.276,590.719C708.255,590.061 713.113,588.69 717.701,586.647C722.744,584.11 727.427,580.91 731.624,577.134C732.005,579.519 732.853,581.807 734.12,583.864C734.15,583.913 734.182,583.96 734.218,584.004C734.824,584.727 735.525,585.363 736.302,585.897L736.552,586.085C736.84,586.309 737.107,586.56 737.347,586.836C738.774,588.476 739.642,590.528 739.826,592.694C739.902,593.439 739.94,594.188 739.938,594.938C739.937,606.777 730.339,616.375 718.5,616.375C718.16,616.375 717.821,616.367 717.482,616.351ZM691.509,604.367C691.181,599.205 690.809,593.353 690.867,587.122C690.997,573.397 693.51,569.471 699.024,565.907C705.731,562.036 713.706,561.008 721.175,563.052C729.948,565.786 732.704,570.675 732.727,570.709C733.069,571.357 733.823,571.671 734.525,571.459C735.701,571.105 739.221,570.416 741.348,571.473C743.917,572.747 746.86,575.29 746.86,583.695C746.577,588.711 745.799,593.686 744.537,598.548C743.201,604.6 742.046,609.827 742.881,613.095C743.629,616.536 745.056,619.794 747.078,622.678C742.714,623.396 735.99,623.988 733.353,622.08C731.502,620.656 729.737,619.122 728.069,617.487C737.122,613.65 743.002,604.77 743,594.938C743,594.081 742.956,593.226 742.868,592.374C742.618,589.564 741.48,586.907 739.621,584.785C739.25,584.365 738.839,583.981 738.396,583.638L738.134,583.442C737.602,583.079 737.114,582.655 736.679,582.179C735.605,580.411 734.9,578.445 734.607,576.397C734.372,574.808 732.893,573.709 731.304,573.944C730.711,574.032 730.16,574.3 729.726,574.713C725.712,578.351 721.225,581.432 716.388,583.871C712.068,585.786 707.494,587.071 702.808,587.685C701.85,587.851 700.881,587.943 699.909,587.96C696.751,588.059 694.198,590.567 694.041,593.723C694.002,594.568 694.003,595.42 694.041,596.257C694.585,605.177 699.908,613.106 707.957,616.987L707.94,617.004C706.128,618.829 704.183,620.518 702.122,622.057C698.906,623.722 693.109,624.354 689.633,624.583C690.71,622.519 691.411,620.28 691.703,617.971C692.048,613.439 691.983,608.886 691.509,604.367Z" style="fill:white;fill-rule:nonzero;"/>
                        <path d="M762.191,640.148C755.163,634.737 747.111,630.806 738.521,628.593C736.543,628 734.551,627.489 732.601,627.072L731.825,626.905L731.242,627.446C725.002,633.219 720.772,633.219 718.5,633.219C716.228,633.219 711.963,633.219 705.754,627.523L705.174,626.99L704.408,627.152C702.532,627.547 700.551,628.029 698.502,628.588C690.016,631.075 682.011,634.98 674.827,640.137C671.533,642.718 669.577,646.644 669.5,650.828L669.5,674.562L672.562,674.562L672.562,650.828C672.63,647.599 674.14,644.569 676.679,642.572C683.554,637.65 691.209,633.923 699.323,631.547C701.022,631.087 702.691,630.671 704.276,630.322C710.231,635.557 714.8,636.281 718.5,636.281C722.2,636.281 726.744,635.548 732.725,630.234C734.35,630.602 736.002,631.035 737.661,631.533C745.86,633.635 753.549,637.376 760.265,642.529C762.833,644.527 764.365,647.575 764.438,650.828L764.438,674.562L767.5,674.562L767.5,650.828C767.426,646.651 765.476,642.729 762.191,640.148Z" style="fill:white;fill-rule:nonzero;"/>
                    </g>
                </g>
            </g>
            <g>
                <g>
                    <g>
                        <path d="M564.323,211.45C565.274,211.462 566.36,211.46 567.523,211.45C567.775,224.694 578.716,235.226 591.961,234.973C604.917,234.726 615.335,224.232 615.487,211.273C615.923,209.794 618.701,199.691 615.364,193.303C613.215,188.797 608.587,186.004 603.599,186.203C601.146,184.262 590.864,177.329 576.406,184.156C564.555,189.747 564.212,202.006 564.227,203.846L562.877,209.614C562.688,210.421 563.189,211.228 563.995,211.417C564.102,211.441 564.211,211.455 564.32,211.456L564.323,211.45ZM591.5,232C580.05,231.984 570.721,222.805 570.518,211.357C576.127,211.124 582.743,210.397 586.906,208.43C592.352,205.859 599.235,200.068 601.401,198.187C603.481,199.146 605.321,200.553 606.791,202.309C608.019,203.81 609.082,205.439 609.962,207.167C610.664,208.42 611.462,209.836 612.479,211.406C612.251,222.834 602.93,231.983 591.5,232ZM567.191,204.337C567.221,204.208 567.234,204.075 567.23,203.943C567.215,203.453 566.957,191.924 577.687,186.859C581.174,185.135 585.003,184.213 588.893,184.159C593.71,184.096 598.391,185.755 602.093,188.837C602.434,189.16 602.906,189.305 603.37,189.23C607.322,188.876 611.065,191.061 612.7,194.677C614.572,198.26 614.031,203.628 613.375,207.111C613.093,206.618 612.828,206.147 612.575,205.696C611.598,203.785 610.416,201.985 609.05,200.329C607.073,197.864 604.427,196.021 601.43,195.021C600.951,194.906 600.447,195.033 600.08,195.361C599.996,195.436 591.651,202.876 585.632,205.711C580.747,208.016 571.478,208.411 566.235,208.444L567.191,204.337Z" style="fill:rgb(242,242,242);fill-rule:nonzero;"/>
                        <path d="M635.799,255.288C628.914,249.987 621.027,246.137 612.612,243.969C610.674,243.388 608.723,242.887 606.813,242.479L606.053,242.315L605.482,242.845C599.369,248.5 595.226,248.5 593,248.5C590.774,248.5 586.596,248.5 580.514,242.92L579.945,242.398L579.195,242.557C577.358,242.944 575.417,243.417 573.41,243.964C565.097,246.4 557.256,250.225 550.219,255.277C546.992,257.805 545.075,261.652 545,265.75L545,289L548,289L548,265.75C548.066,262.586 549.545,259.619 552.032,257.662C558.767,252.841 566.266,249.19 574.214,246.862C575.879,246.412 577.514,246.004 579.067,245.662C584.9,250.79 589.376,251.5 593,251.5C596.624,251.5 601.076,250.781 606.935,245.577C608.526,245.936 610.145,246.361 611.77,246.848C619.802,248.908 627.334,252.572 633.912,257.62C636.428,259.578 637.929,262.563 638,265.75L638,289L641,289L641,265.75C640.927,261.658 639.018,257.816 635.799,255.288Z" style="fill:rgb(242,242,242);fill-rule:nonzero;"/>
                    </g>
                </g>
            </g>
            <g>
                <g>
                    <g>
                        <path d="M211.786,379.774L211.815,379.774C212.275,379.774 223.229,379.575 228.622,376.725C228.668,376.699 228.716,376.671 228.76,376.642C230.995,375.002 233.099,373.19 235.052,371.223C235.404,370.888 235.744,370.565 236.077,370.252C238.103,370.917 240.21,371.306 242.341,371.41C242.734,371.428 243.128,371.438 243.518,371.438C245.638,371.433 247.748,371.154 249.797,370.608C250.077,370.869 250.36,371.136 250.665,371.424C252.525,373.253 254.496,374.968 256.565,376.558C261.575,380.186 274.105,377.454 275.518,377.131C276.113,376.989 276.566,376.507 276.671,375.906C276.774,375.296 276.505,374.683 275.987,374.345C275.955,374.325 272.851,372.231 270.856,364.345C270.202,361.786 271.335,356.653 272.54,351.219C273.856,346.144 274.658,340.95 274.935,335.715C274.935,327.944 272.638,323.185 267.715,320.741C265.179,319.756 262.399,319.588 259.763,320.262C258.385,318.41 254.719,314.512 247.039,312.118C238.743,309.837 229.878,310.98 222.432,315.291C216.022,319.426 212.947,324.05 212.805,339.094C212.746,345.437 213.12,351.344 213.451,356.561C213.896,360.876 213.971,365.222 213.673,369.549C213.316,372.367 212.245,375.047 210.561,377.334C210.06,378.015 210.205,378.974 210.886,379.475C211.147,379.668 211.462,379.772 211.786,379.774ZM242.482,368.35C231.533,367.755 222.769,359.046 222.104,348.101C222.066,347.361 222.066,346.619 222.104,345.878C222.176,344.321 223.43,343.08 224.987,343.025C226.09,343.007 227.189,342.905 228.276,342.719C233.255,342.061 238.113,340.69 242.701,338.647C247.744,336.11 252.427,332.91 256.624,329.134C257.005,331.52 257.853,333.807 259.12,335.863C259.15,335.913 259.182,335.96 259.218,336.004C259.824,336.727 260.525,337.363 261.302,337.897L261.552,338.085C261.84,338.309 262.107,338.56 262.347,338.836C263.774,340.476 264.642,342.528 264.826,344.694C264.902,345.439 264.939,346.188 264.938,346.938C264.937,358.777 255.339,368.375 243.5,368.375C243.16,368.375 242.821,368.367 242.482,368.35ZM216.509,356.367C216.181,351.205 215.809,345.353 215.867,339.122C215.997,325.397 218.51,321.471 224.024,317.907C230.731,314.036 238.706,313.008 246.175,315.052C254.948,317.786 257.704,322.675 257.727,322.709C258.069,323.357 258.823,323.671 259.525,323.459C260.701,323.105 264.221,322.416 266.348,323.473C268.917,324.747 271.86,327.29 271.86,335.695C271.577,340.711 270.799,345.686 269.537,350.548C268.201,356.6 267.046,361.827 267.881,365.095C268.629,368.536 270.056,371.794 272.078,374.678C267.714,375.396 260.99,375.988 258.353,374.08C256.502,372.656 254.737,371.122 253.069,369.487C262.122,365.65 268.002,356.77 268,346.938C268,346.081 267.956,345.226 267.868,344.374C267.618,341.564 266.48,338.907 264.621,336.785C264.25,336.365 263.839,335.981 263.396,335.638L263.134,335.442C262.602,335.079 262.114,334.655 261.679,334.179C260.605,332.411 259.9,330.445 259.607,328.397C259.372,326.808 257.893,325.709 256.304,325.944C255.711,326.032 255.16,326.3 254.726,326.713C250.712,330.351 246.225,333.432 241.388,335.871C237.068,337.786 232.494,339.071 227.808,339.685C226.85,339.851 225.881,339.943 224.909,339.96C221.751,340.059 219.198,342.567 219.041,345.723C219.002,346.568 219.003,347.42 219.041,348.257C219.585,357.177 224.908,365.106 232.957,368.987L232.94,369.004C231.128,370.829 229.183,372.518 227.122,374.057C223.906,375.722 218.109,376.354 214.633,376.583C215.71,374.519 216.411,372.28 216.703,369.971C217.048,365.439 216.983,360.886 216.509,356.367Z" style="fill:white;fill-rule:nonzero;"/>
                        <path d="M287.191,392.148C280.163,386.737 272.111,382.806 263.521,380.593C261.543,380 259.551,379.489 257.601,379.072L256.825,378.905L256.242,379.446C250.002,385.219 245.772,385.219 243.5,385.219C241.228,385.219 236.963,385.219 230.754,379.522L230.174,378.99L229.408,379.152C227.532,379.547 225.551,380.029 223.502,380.588C215.016,383.075 207.011,386.98 199.827,392.137C196.533,394.718 194.577,398.644 194.5,402.828L194.5,426.562L197.562,426.562L197.562,402.828C197.63,399.599 199.14,396.569 201.678,394.572C208.553,389.65 216.209,385.923 224.323,383.547C226.022,383.087 227.691,382.671 229.276,382.322C235.231,387.557 239.801,388.281 243.5,388.281C247.199,388.281 251.744,387.548 257.725,382.234C259.35,382.602 261.002,383.035 262.661,383.533C270.86,385.635 278.549,389.376 285.265,394.529C287.833,396.527 289.365,399.575 289.438,402.828L289.438,426.562L292.5,426.562L292.5,402.828C292.426,398.651 290.476,394.729 287.191,392.148Z" style="fill:white;fill-rule:nonzero;"/>
                    </g>
                </g>
            </g>
            <g>
                <g>
                    <g>
                        <path d="M977.323,187.45C978.274,187.462 979.36,187.46 980.523,187.45C980.775,200.694 991.716,211.226 1004.96,210.973C1017.92,210.726 1028.33,200.232 1028.49,187.273C1028.92,185.794 1031.7,175.691 1028.36,169.303C1026.21,164.797 1021.59,162.004 1016.6,162.203C1014.15,160.262 1003.86,153.329 989.406,160.156C977.555,165.747 977.212,178.006 977.227,179.846L975.877,185.614C975.688,186.421 976.189,187.228 976.995,187.417C977.102,187.441 977.211,187.455 977.32,187.456L977.323,187.45ZM1004.5,208C993.05,207.984 983.721,198.805 983.518,187.357C989.127,187.124 995.743,186.397 999.906,184.43C1005.35,181.859 1012.24,176.068 1014.4,174.187C1016.48,175.146 1018.32,176.553 1019.79,178.309C1021.02,179.81 1022.08,181.439 1022.96,183.167C1023.66,184.42 1024.46,185.836 1025.48,187.406C1025.25,198.834 1015.93,207.983 1004.5,208ZM980.191,180.337C980.221,180.208 980.234,180.075 980.23,179.943C980.215,179.453 979.957,167.924 990.687,162.859C994.174,161.135 998.003,160.213 1001.89,160.159C1006.71,160.096 1011.39,161.755 1015.09,164.837C1015.43,165.16 1015.91,165.305 1016.37,165.23C1020.32,164.876 1024.07,167.061 1025.7,170.677C1027.57,174.26 1027.03,179.628 1026.37,183.111C1026.09,182.618 1025.83,182.147 1025.57,181.696C1024.6,179.785 1023.42,177.985 1022.05,176.329C1020.07,173.864 1017.43,172.021 1014.43,171.021C1013.95,170.906 1013.45,171.033 1013.08,171.361C1013,171.436 1004.65,178.876 998.632,181.711C993.747,184.016 984.478,184.411 979.235,184.444L980.191,180.337Z" style="fill:rgb(242,242,242);fill-rule:nonzero;"/>
                        <path d="M1048.8,231.288C1041.91,225.987 1034.03,222.137 1025.61,219.969C1023.67,219.388 1021.72,218.887 1019.81,218.479L1019.05,218.315L1018.48,218.845C1012.37,224.5 1008.23,224.5 1006,224.5C1003.77,224.5 999.596,224.5 993.514,218.92L992.945,218.398L992.195,218.557C990.358,218.944 988.417,219.417 986.41,219.964C978.097,222.4 970.256,226.225 963.219,231.277C959.992,233.805 958.075,237.652 958,241.75L958,265L961,265L961,241.75C961.066,238.587 962.545,235.619 965.032,233.662C971.767,228.841 979.266,225.19 987.214,222.862C988.879,222.412 990.514,222.004 992.067,221.662C997.9,226.79 1002.38,227.5 1006,227.5C1009.62,227.5 1014.08,226.781 1019.93,221.577C1021.53,221.936 1023.15,222.361 1024.77,222.848C1032.8,224.908 1040.33,228.572 1046.91,233.62C1049.43,235.578 1050.93,238.563 1051,241.75L1051,265L1054,265L1054,241.75C1053.93,237.658 1052.02,233.816 1048.8,231.288Z" style="fill:rgb(242,242,242);fill-rule:nonzero;"/>
                    </g>
                </g>
            </g>
            <rect x="9" y="16" width="736" height="39" style="fill:rgb(89,89,89);"/>
            <g transform="matrix(1,0,0,1,18.5344,43)">
                <g transform="matrix(24,0,0,24,0,0)">
                    <path d="M0.322,-0.749L0.322,-0.075L0.457,-0.075L0.457,-0.022L0.116,-0.022L0.116,-0.075L0.26,-0.075L0.26,-0.681C0.218,-0.652 0.169,-0.627 0.113,-0.606L0.102,-0.664C0.157,-0.683 0.214,-0.711 0.271,-0.749L0.322,-0.749Z" style="fill:white;fill-rule:nonzero;"/>
                </g>
                <g transform="matrix(24,0,0,24,13.3476,0)">
                    <rect x="0.079" y="-0.124" width="0.1" height="0.102" style="fill:white;fill-rule:nonzero;"/>
                </g>
                <g transform="matrix(1,0,0,1,36,0)">
                    <g transform="matrix(24,0,0,24,0,0)">
                        <path d="M0.113,-0.751L0.329,-0.751C0.446,-0.751 0.534,-0.717 0.594,-0.65C0.648,-0.589 0.675,-0.502 0.675,-0.39C0.675,-0.263 0.637,-0.167 0.562,-0.102C0.5,-0.049 0.418,-0.022 0.316,-0.022L0.113,-0.022L0.113,-0.751ZM0.179,-0.695L0.179,-0.078L0.314,-0.078C0.411,-0.078 0.485,-0.106 0.535,-0.163C0.582,-0.216 0.605,-0.292 0.605,-0.389C0.605,-0.593 0.511,-0.695 0.323,-0.695L0.179,-0.695Z" style="fill:white;fill-rule:nonzero;"/>
                    </g>
                    <g transform="matrix(24,0,0,24,17.8828,0)">
                        <path d="M0.162,-0.522L0.162,-0.022L0.1,-0.022L0.1,-0.522L0.162,-0.522ZM0.177,-0.723L0.177,-0.63L0.085,-0.63L0.085,-0.723L0.177,-0.723Z" style="fill:white;fill-rule:nonzero;"/>
                    </g>
                    <g transform="matrix(24,0,0,24,24.1758,0)">
                        <path d="M0.431,-0.416L0.371,-0.395C0.352,-0.455 0.312,-0.485 0.249,-0.485C0.211,-0.485 0.182,-0.477 0.162,-0.46C0.144,-0.446 0.135,-0.428 0.135,-0.405C0.135,-0.377 0.144,-0.357 0.162,-0.343C0.177,-0.331 0.205,-0.321 0.245,-0.312L0.285,-0.303C0.347,-0.289 0.389,-0.27 0.413,-0.247C0.434,-0.225 0.444,-0.195 0.444,-0.157C0.444,-0.111 0.427,-0.075 0.391,-0.048C0.358,-0.022 0.312,-0.01 0.254,-0.01C0.154,-0.01 0.088,-0.05 0.057,-0.131L0.117,-0.154C0.139,-0.09 0.185,-0.059 0.255,-0.059C0.302,-0.059 0.336,-0.069 0.358,-0.09C0.375,-0.107 0.383,-0.127 0.383,-0.151C0.383,-0.182 0.375,-0.204 0.357,-0.218C0.34,-0.23 0.309,-0.242 0.264,-0.252L0.224,-0.261C0.165,-0.275 0.125,-0.293 0.103,-0.318C0.085,-0.338 0.076,-0.365 0.076,-0.4C0.076,-0.442 0.093,-0.475 0.125,-0.5C0.156,-0.523 0.198,-0.534 0.25,-0.534C0.34,-0.534 0.401,-0.495 0.431,-0.416Z" style="fill:white;fill-rule:nonzero;"/>
                    </g>
                    <g transform="matrix(24,0,0,24,36.3867,0)">
                        <path d="M0.16,-0.522L0.16,-0.442C0.2,-0.503 0.251,-0.534 0.314,-0.534C0.377,-0.534 0.426,-0.508 0.463,-0.457C0.496,-0.41 0.512,-0.349 0.512,-0.274C0.512,-0.188 0.49,-0.12 0.446,-0.071C0.409,-0.03 0.363,-0.01 0.309,-0.01C0.247,-0.01 0.198,-0.04 0.162,-0.101L0.162,0.159L0.1,0.159L0.1,-0.522L0.16,-0.522ZM0.162,-0.38L0.162,-0.16C0.2,-0.095 0.246,-0.063 0.3,-0.063C0.347,-0.063 0.384,-0.083 0.411,-0.125C0.436,-0.162 0.448,-0.212 0.448,-0.273C0.448,-0.344 0.433,-0.398 0.403,-0.436C0.378,-0.467 0.346,-0.482 0.306,-0.482C0.247,-0.482 0.199,-0.448 0.162,-0.38Z" style="fill:white;fill-rule:nonzero;"/>
                    </g>
                    <g transform="matrix(24,0,0,24,50.3086,0)">
                        <rect x="0.1" y="-0.764" width="0.062" height="0.742" style="fill:white;fill-rule:nonzero;"/>
                    </g>
                    <g transform="matrix(24,0,0,24,56.6016,0)">
                        <path d="M0.086,-0.406C0.116,-0.491 0.181,-0.534 0.283,-0.534C0.401,-0.534 0.46,-0.479 0.46,-0.368L0.46,-0.192C0.46,-0.125 0.464,-0.069 0.472,-0.022L0.414,-0.022C0.41,-0.041 0.406,-0.07 0.403,-0.11C0.359,-0.043 0.299,-0.01 0.222,-0.01C0.169,-0.01 0.129,-0.025 0.101,-0.056C0.077,-0.081 0.065,-0.114 0.065,-0.155C0.065,-0.245 0.121,-0.3 0.234,-0.319C0.278,-0.326 0.333,-0.332 0.4,-0.335L0.4,-0.362C0.4,-0.409 0.389,-0.442 0.369,-0.461C0.35,-0.477 0.321,-0.485 0.282,-0.485C0.21,-0.485 0.164,-0.452 0.144,-0.385L0.086,-0.406ZM0.4,-0.289C0.35,-0.288 0.299,-0.283 0.247,-0.273C0.167,-0.257 0.127,-0.218 0.127,-0.158C0.127,-0.125 0.137,-0.1 0.158,-0.083C0.177,-0.067 0.202,-0.059 0.233,-0.059C0.3,-0.059 0.356,-0.095 0.4,-0.167L0.4,-0.289Z" style="fill:white;fill-rule:nonzero;"/>
                    </g>
                    <g transform="matrix(24,0,0,24,69.9961,0)">
                        <path d="M0.453,-0.522L0.264,0.004C0.243,0.064 0.217,0.106 0.185,0.129C0.159,0.149 0.126,0.159 0.087,0.159C0.07,0.159 0.055,0.158 0.042,0.155L0.037,0.101C0.055,0.105 0.072,0.107 0.087,0.107C0.118,0.107 0.142,0.097 0.162,0.077C0.179,0.06 0.195,0.032 0.209,-0.007L0.218,-0.031L0.04,-0.522L0.107,-0.522L0.215,-0.2C0.222,-0.18 0.232,-0.146 0.245,-0.099L0.25,-0.099C0.255,-0.113 0.261,-0.132 0.268,-0.155C0.276,-0.178 0.281,-0.194 0.283,-0.202L0.389,-0.522L0.453,-0.522Z" style="fill:white;fill-rule:nonzero;"/>
                    </g>
                    <g transform="matrix(24,0,0,24,81.8086,0)">
                        <path d="M0.162,-0.522L0.162,-0.022L0.1,-0.022L0.1,-0.522L0.162,-0.522ZM0.177,-0.723L0.177,-0.63L0.085,-0.63L0.085,-0.723L0.177,-0.723Z" style="fill:white;fill-rule:nonzero;"/>
                    </g>
                    <g transform="matrix(24,0,0,24,88.1016,0)">
                        <path d="M0.16,-0.522L0.16,-0.429C0.216,-0.499 0.277,-0.534 0.343,-0.534C0.388,-0.534 0.423,-0.52 0.449,-0.492C0.472,-0.467 0.483,-0.434 0.483,-0.393L0.483,-0.022L0.42,-0.022L0.42,-0.367C0.42,-0.441 0.389,-0.478 0.327,-0.478C0.269,-0.478 0.214,-0.443 0.162,-0.374L0.162,-0.022L0.1,-0.022L0.1,-0.522L0.16,-0.522Z" style="fill:white;fill-rule:nonzero;"/>
                    </g>
                    <g transform="matrix(24,0,0,24,102.023,0)">
                        <path d="M0.505,-0.583L0.5,-0.526C0.473,-0.526 0.452,-0.522 0.435,-0.515C0.422,-0.509 0.408,-0.5 0.394,-0.486C0.429,-0.458 0.447,-0.419 0.447,-0.369C0.447,-0.315 0.427,-0.273 0.388,-0.243C0.355,-0.217 0.314,-0.204 0.264,-0.204C0.234,-0.204 0.206,-0.209 0.181,-0.22C0.147,-0.201 0.131,-0.181 0.131,-0.16C0.131,-0.142 0.138,-0.13 0.152,-0.124C0.166,-0.117 0.194,-0.112 0.237,-0.108L0.335,-0.098C0.403,-0.091 0.45,-0.076 0.476,-0.053C0.495,-0.035 0.505,-0.011 0.505,0.02C0.505,0.064 0.483,0.099 0.438,0.124C0.397,0.147 0.341,0.159 0.271,0.159C0.196,0.159 0.139,0.146 0.1,0.121C0.067,0.099 0.05,0.071 0.05,0.036C0.05,0.011 0.06,-0.011 0.081,-0.031C0.098,-0.049 0.122,-0.062 0.152,-0.072C0.101,-0.083 0.076,-0.107 0.076,-0.145C0.076,-0.178 0.099,-0.21 0.145,-0.242C0.103,-0.272 0.082,-0.314 0.082,-0.368C0.082,-0.421 0.102,-0.463 0.143,-0.495C0.176,-0.521 0.217,-0.534 0.265,-0.534C0.302,-0.534 0.334,-0.527 0.361,-0.511C0.38,-0.538 0.402,-0.557 0.426,-0.568C0.447,-0.578 0.474,-0.583 0.505,-0.583ZM0.265,-0.49C0.227,-0.49 0.197,-0.478 0.173,-0.454C0.152,-0.432 0.141,-0.403 0.141,-0.368C0.141,-0.329 0.155,-0.298 0.182,-0.275C0.204,-0.257 0.231,-0.248 0.264,-0.248C0.302,-0.248 0.332,-0.26 0.355,-0.284C0.377,-0.306 0.388,-0.334 0.388,-0.368C0.388,-0.409 0.374,-0.44 0.347,-0.462C0.325,-0.481 0.297,-0.49 0.265,-0.49ZM0.205,-0.06C0.139,-0.042 0.107,-0.013 0.107,0.028C0.107,0.059 0.124,0.081 0.159,0.097C0.188,0.109 0.226,0.115 0.273,0.115C0.332,0.115 0.378,0.106 0.409,0.086C0.435,0.07 0.448,0.05 0.448,0.026C0.448,0.004 0.438,-0.012 0.419,-0.023C0.4,-0.035 0.367,-0.043 0.32,-0.048L0.205,-0.06Z" style="fill:white;fill-rule:nonzero;"/>
                    </g>
                    <g transform="matrix(24,0,0,24,122.016,0)">
                        <path d="M0.086,-0.406C0.116,-0.491 0.181,-0.534 0.283,-0.534C0.401,-0.534 0.46,-0.479 0.46,-0.368L0.46,-0.192C0.46,-0.125 0.464,-0.069 0.472,-0.022L0.414,-0.022C0.41,-0.041 0.406,-0.07 0.403,-0.11C0.359,-0.043 0.299,-0.01 0.222,-0.01C0.169,-0.01 0.129,-0.025 0.101,-0.056C0.077,-0.081 0.065,-0.114 0.065,-0.155C0.065,-0.245 0.121,-0.3 0.234,-0.319C0.278,-0.326 0.333,-0.332 0.4,-0.335L0.4,-0.362C0.4,-0.409 0.389,-0.442 0.369,-0.461C0.35,-0.477 0.321,-0.485 0.282,-0.485C0.21,-0.485 0.164,-0.452 0.144,-0.385L0.086,-0.406ZM0.4,-0.289C0.35,-0.288 0.299,-0.283 0.247,-0.273C0.167,-0.257 0.127,-0.218 0.127,-0.158C0.127,-0.125 0.137,-0.1 0.158,-0.083C0.177,-0.067 0.202,-0.059 0.233,-0.059C0.3,-0.059 0.356,-0.095 0.4,-0.167L0.4,-0.289Z" style="fill:white;fill-rule:nonzero;"/>
                    </g>
                    <g transform="matrix(24,0,0,24,135.41,0)">
                        <path d="M0.16,-0.522L0.16,-0.429C0.216,-0.499 0.277,-0.534 0.343,-0.534C0.388,-0.534 0.423,-0.52 0.449,-0.492C0.472,-0.467 0.483,-0.434 0.483,-0.393L0.483,-0.022L0.42,-0.022L0.42,-0.367C0.42,-0.441 0.389,-0.478 0.327,-0.478C0.269,-0.478 0.214,-0.443 0.162,-0.374L0.162,-0.022L0.1,-0.022L0.1,-0.522L0.16,-0.522Z" style="fill:white;fill-rule:nonzero;"/>
                    </g>
                    <g transform="matrix(24,0,0,24,156.176,0)">
                        <path d="M0.162,-0.522L0.162,-0.022L0.1,-0.022L0.1,-0.522L0.162,-0.522ZM0.177,-0.723L0.177,-0.63L0.085,-0.63L0.085,-0.723L0.177,-0.723Z" style="fill:white;fill-rule:nonzero;"/>
                    </g>
                    <g transform="matrix(24,0,0,24,162.469,0)">
                        <path d="M0.159,-0.522L0.159,-0.429C0.211,-0.499 0.268,-0.534 0.328,-0.534C0.365,-0.534 0.395,-0.523 0.42,-0.501C0.441,-0.482 0.454,-0.458 0.458,-0.43C0.509,-0.5 0.565,-0.534 0.628,-0.534C0.672,-0.534 0.706,-0.52 0.731,-0.492C0.753,-0.467 0.764,-0.434 0.764,-0.393L0.764,-0.022L0.702,-0.022L0.702,-0.367C0.702,-0.441 0.672,-0.478 0.611,-0.478C0.583,-0.478 0.555,-0.467 0.526,-0.446C0.502,-0.428 0.481,-0.404 0.462,-0.374L0.462,-0.022L0.4,-0.022L0.4,-0.367C0.4,-0.441 0.371,-0.478 0.312,-0.478C0.284,-0.478 0.257,-0.468 0.229,-0.447C0.203,-0.429 0.181,-0.405 0.161,-0.374L0.161,-0.022L0.1,-0.022L0.1,-0.522L0.159,-0.522Z" style="fill:white;fill-rule:nonzero;"/>
                    </g>
                    <g transform="matrix(24,0,0,24,183.129,0)">
                        <path d="M0.086,-0.406C0.116,-0.491 0.181,-0.534 0.283,-0.534C0.401,-0.534 0.46,-0.479 0.46,-0.368L0.46,-0.192C0.46,-0.125 0.464,-0.069 0.472,-0.022L0.414,-0.022C0.41,-0.041 0.406,-0.07 0.403,-0.11C0.359,-0.043 0.299,-0.01 0.222,-0.01C0.169,-0.01 0.129,-0.025 0.101,-0.056C0.077,-0.081 0.065,-0.114 0.065,-0.155C0.065,-0.245 0.121,-0.3 0.234,-0.319C0.278,-0.326 0.333,-0.332 0.4,-0.335L0.4,-0.362C0.4,-0.409 0.389,-0.442 0.369,-0.461C0.35,-0.477 0.321,-0.485 0.282,-0.485C0.21,-0.485 0.164,-0.452 0.144,-0.385L0.086,-0.406ZM0.4,-0.289C0.35,-0.288 0.299,-0.283 0.247,-0.273C0.167,-0.257 0.127,-0.218 0.127,-0.158C0.127,-0.125 0.137,-0.1 0.158,-0.083C0.177,-0.067 0.202,-0.059 0.233,-0.059C0.3,-0.059 0.356,-0.095 0.4,-0.167L0.4,-0.289Z" style="fill:white;fill-rule:nonzero;"/>
                    </g>
                    <g transform="matrix(24,0,0,24,196.523,0)">
                        <path d="M0.505,-0.583L0.5,-0.526C0.473,-0.526 0.452,-0.522 0.435,-0.515C0.422,-0.509 0.408,-0.5 0.394,-0.486C0.429,-0.458 0.447,-0.419 0.447,-0.369C0.447,-0.315 0.427,-0.273 0.388,-0.243C0.355,-0.217 0.314,-0.204 0.264,-0.204C0.234,-0.204 0.206,-0.209 0.181,-0.22C0.147,-0.201 0.131,-0.181 0.131,-0.16C0.131,-0.142 0.138,-0.13 0.152,-0.124C0.166,-0.117 0.194,-0.112 0.237,-0.108L0.335,-0.098C0.403,-0.091 0.45,-0.076 0.476,-0.053C0.495,-0.035 0.505,-0.011 0.505,0.02C0.505,0.064 0.483,0.099 0.438,0.124C0.397,0.147 0.341,0.159 0.271,0.159C0.196,0.159 0.139,0.146 0.1,0.121C0.067,0.099 0.05,0.071 0.05,0.036C0.05,0.011 0.06,-0.011 0.081,-0.031C0.098,-0.049 0.122,-0.062 0.152,-0.072C0.101,-0.083 0.076,-0.107 0.076,-0.145C0.076,-0.178 0.099,-0.21 0.145,-0.242C0.103,-0.272 0.082,-0.314 0.082,-0.368C0.082,-0.421 0.102,-0.463 0.143,-0.495C0.176,-0.521 0.217,-0.534 0.265,-0.534C0.302,-0.534 0.334,-0.527 0.361,-0.511C0.38,-0.538 0.402,-0.557 0.426,-0.568C0.447,-0.578 0.474,-0.583 0.505,-0.583ZM0.265,-0.49C0.227,-0.49 0.197,-0.478 0.173,-0.454C0.152,-0.432 0.141,-0.403 0.141,-0.368C0.141,-0.329 0.155,-0.298 0.182,-0.275C0.204,-0.257 0.231,-0.248 0.264,-0.248C0.302,-0.248 0.332,-0.26 0.355,-0.284C0.377,-0.306 0.388,-0.334 0.388,-0.368C0.388,-0.409 0.374,-0.44 0.347,-0.462C0.325,-0.481 0.297,-0.49 0.265,-0.49ZM0.205,-0.06C0.139,-0.042 0.107,-0.013 0.107,0.028C0.107,0.059 0.124,0.081 0.159,0.097C0.188,0.109 0.226,0.115 0.273,0.115C0.332,0.115 0.378,0.106 0.409,0.086C0.435,0.07 0.448,0.05 0.448,0.026C0.448,0.004 0.438,-0.012 0.419,-0.023C0.4,-0.035 0.367,-0.043 0.32,-0.048L0.205,-0.06Z" style="fill:white;fill-rule:nonzero;"/>
                    </g>
                    <g transform="matrix(24,0,0,24,209.672,0)">
                        <path d="M0.492,-0.267L0.129,-0.267C0.129,-0.197 0.146,-0.143 0.18,-0.105C0.208,-0.074 0.244,-0.059 0.288,-0.059C0.36,-0.059 0.407,-0.094 0.43,-0.166L0.488,-0.144C0.453,-0.055 0.386,-0.01 0.287,-0.01C0.217,-0.01 0.162,-0.036 0.122,-0.089C0.086,-0.136 0.068,-0.197 0.068,-0.271C0.068,-0.356 0.091,-0.423 0.137,-0.472C0.175,-0.513 0.224,-0.534 0.282,-0.534C0.348,-0.534 0.4,-0.509 0.439,-0.458C0.474,-0.412 0.492,-0.354 0.492,-0.283L0.492,-0.267ZM0.43,-0.314C0.425,-0.372 0.408,-0.416 0.379,-0.446C0.354,-0.472 0.322,-0.484 0.283,-0.484C0.238,-0.484 0.201,-0.467 0.173,-0.432C0.149,-0.402 0.134,-0.362 0.131,-0.314L0.43,-0.314Z" style="fill:white;fill-rule:nonzero;"/>
                    </g>
                    <g transform="matrix(24,0,0,24,229.91,0)">
                        <path d="M0.281,-0.534C0.347,-0.534 0.401,-0.508 0.44,-0.455C0.475,-0.408 0.493,-0.347 0.493,-0.274C0.493,-0.189 0.47,-0.122 0.425,-0.073C0.386,-0.031 0.338,-0.01 0.28,-0.01C0.212,-0.01 0.159,-0.036 0.12,-0.09C0.085,-0.137 0.068,-0.197 0.068,-0.271C0.068,-0.356 0.09,-0.423 0.135,-0.472C0.174,-0.513 0.222,-0.534 0.281,-0.534ZM0.281,-0.483C0.231,-0.483 0.193,-0.463 0.167,-0.421C0.144,-0.384 0.132,-0.335 0.132,-0.273C0.132,-0.201 0.147,-0.147 0.177,-0.109C0.203,-0.077 0.237,-0.061 0.28,-0.061C0.329,-0.061 0.367,-0.082 0.394,-0.124C0.417,-0.161 0.429,-0.21 0.429,-0.273C0.429,-0.344 0.414,-0.398 0.384,-0.435C0.358,-0.467 0.323,-0.483 0.281,-0.483Z" style="fill:white;fill-rule:nonzero;"/>
                    </g>
                    <g transform="matrix(24,0,0,24,243.375,0)">
                        <path d="M0.16,-0.522L0.16,-0.429C0.216,-0.499 0.277,-0.534 0.343,-0.534C0.388,-0.534 0.423,-0.52 0.449,-0.492C0.472,-0.467 0.483,-0.434 0.483,-0.393L0.483,-0.022L0.42,-0.022L0.42,-0.367C0.42,-0.441 0.389,-0.478 0.327,-0.478C0.269,-0.478 0.214,-0.443 0.162,-0.374L0.162,-0.022L0.1,-0.022L0.1,-0.522L0.16,-0.522Z" style="fill:white;fill-rule:nonzero;"/>
                    </g>
                    <g transform="matrix(24,0,0,24,264.141,0)">
                        <path d="M0.086,-0.406C0.116,-0.491 0.181,-0.534 0.283,-0.534C0.401,-0.534 0.46,-0.479 0.46,-0.368L0.46,-0.192C0.46,-0.125 0.464,-0.069 0.472,-0.022L0.414,-0.022C0.41,-0.041 0.406,-0.07 0.403,-0.11C0.359,-0.043 0.299,-0.01 0.222,-0.01C0.169,-0.01 0.129,-0.025 0.101,-0.056C0.077,-0.081 0.065,-0.114 0.065,-0.155C0.065,-0.245 0.121,-0.3 0.234,-0.319C0.278,-0.326 0.333,-0.332 0.4,-0.335L0.4,-0.362C0.4,-0.409 0.389,-0.442 0.369,-0.461C0.35,-0.477 0.321,-0.485 0.282,-0.485C0.21,-0.485 0.164,-0.452 0.144,-0.385L0.086,-0.406ZM0.4,-0.289C0.35,-0.288 0.299,-0.283 0.247,-0.273C0.167,-0.257 0.127,-0.218 0.127,-0.158C0.127,-0.125 0.137,-0.1 0.158,-0.083C0.177,-0.067 0.202,-0.059 0.233,-0.059C0.3,-0.059 0.356,-0.095 0.4,-0.167L0.4,-0.289Z" style="fill:white;fill-rule:nonzero;"/>
                    </g>
                    <g transform="matrix(24,0,0,24,277.535,0)">
                        <rect x="0.1" y="-0.764" width="0.062" height="0.742" style="fill:white;fill-rule:nonzero;"/>
                    </g>
                    <g transform="matrix(24,0,0,24,283.828,0)">
                        <rect x="0.1" y="-0.764" width="0.062" height="0.742" style="fill:white;fill-rule:nonzero;"/>
                    </g>
                    <g transform="matrix(24,0,0,24,296.965,0)">
                        <path d="M0.431,-0.416L0.371,-0.395C0.352,-0.455 0.312,-0.485 0.249,-0.485C0.211,-0.485 0.182,-0.477 0.162,-0.46C0.144,-0.446 0.135,-0.428 0.135,-0.405C0.135,-0.377 0.144,-0.357 0.162,-0.343C0.177,-0.331 0.205,-0.321 0.245,-0.312L0.285,-0.303C0.347,-0.289 0.389,-0.27 0.413,-0.247C0.434,-0.225 0.444,-0.195 0.444,-0.157C0.444,-0.111 0.427,-0.075 0.391,-0.048C0.358,-0.022 0.312,-0.01 0.254,-0.01C0.154,-0.01 0.088,-0.05 0.057,-0.131L0.117,-0.154C0.139,-0.09 0.185,-0.059 0.255,-0.059C0.302,-0.059 0.336,-0.069 0.358,-0.09C0.375,-0.107 0.383,-0.127 0.383,-0.151C0.383,-0.182 0.375,-0.204 0.357,-0.218C0.34,-0.23 0.309,-0.242 0.264,-0.252L0.224,-0.261C0.165,-0.275 0.125,-0.293 0.103,-0.318C0.085,-0.338 0.076,-0.365 0.076,-0.4C0.076,-0.442 0.093,-0.475 0.125,-0.5C0.156,-0.523 0.198,-0.534 0.25,-0.534C0.34,-0.534 0.401,-0.495 0.431,-0.416Z" style="fill:white;fill-rule:nonzero;"/>
                    </g>
                    <g transform="matrix(24,0,0,24,309.176,0)">
                        <path d="M0.159,-0.522L0.159,-0.429C0.211,-0.499 0.268,-0.534 0.328,-0.534C0.365,-0.534 0.395,-0.523 0.42,-0.501C0.441,-0.482 0.454,-0.458 0.458,-0.43C0.509,-0.5 0.565,-0.534 0.628,-0.534C0.672,-0.534 0.706,-0.52 0.731,-0.492C0.753,-0.467 0.764,-0.434 0.764,-0.393L0.764,-0.022L0.702,-0.022L0.702,-0.367C0.702,-0.441 0.672,-0.478 0.611,-0.478C0.583,-0.478 0.555,-0.467 0.526,-0.446C0.502,-0.428 0.481,-0.404 0.462,-0.374L0.462,-0.022L0.4,-0.022L0.4,-0.367C0.4,-0.441 0.371,-0.478 0.312,-0.478C0.284,-0.478 0.257,-0.468 0.229,-0.447C0.203,-0.429 0.181,-0.405 0.161,-0.374L0.161,-0.022L0.1,-0.022L0.1,-0.522L0.159,-0.522Z" style="fill:white;fill-rule:nonzero;"/>
                    </g>
                    <g transform="matrix(24,0,0,24,329.836,0)">
                        <path d="M0.086,-0.406C0.116,-0.491 0.181,-0.534 0.283,-0.534C0.401,-0.534 0.46,-0.479 0.46,-0.368L0.46,-0.192C0.46,-0.125 0.464,-0.069 0.472,-0.022L0.414,-0.022C0.41,-0.041 0.406,-0.07 0.403,-0.11C0.359,-0.043 0.299,-0.01 0.222,-0.01C0.169,-0.01 0.129,-0.025 0.101,-0.056C0.077,-0.081 0.065,-0.114 0.065,-0.155C0.065,-0.245 0.121,-0.3 0.234,-0.319C0.278,-0.326 0.333,-0.332 0.4,-0.335L0.4,-0.362C0.4,-0.409 0.389,-0.442 0.369,-0.461C0.35,-0.477 0.321,-0.485 0.282,-0.485C0.21,-0.485 0.164,-0.452 0.144,-0.385L0.086,-0.406ZM0.4,-0.289C0.35,-0.288 0.299,-0.283 0.247,-0.273C0.167,-0.257 0.127,-0.218 0.127,-0.158C0.127,-0.125 0.137,-0.1 0.158,-0.083C0.177,-0.067 0.202,-0.059 0.233,-0.059C0.3,-0.059 0.356,-0.095 0.4,-0.167L0.4,-0.289Z" style="fill:white;fill-rule:nonzero;"/>
                    </g>
                    <g transform="matrix(24,0,0,24,343.23,0)">
                        <path d="M0.327,-0.534L0.322,-0.472C0.287,-0.472 0.255,-0.457 0.225,-0.427C0.197,-0.399 0.175,-0.361 0.161,-0.315L0.161,-0.022L0.1,-0.022L0.1,-0.522L0.159,-0.522L0.159,-0.392C0.179,-0.442 0.205,-0.479 0.238,-0.504C0.266,-0.524 0.295,-0.534 0.327,-0.534Z" style="fill:white;fill-rule:nonzero;"/>
                    </g>
                    <g transform="matrix(24,0,0,24,351.961,0)">
                        <path d="M0.187,-0.701L0.187,-0.522L0.313,-0.522L0.313,-0.472L0.187,-0.472L0.187,-0.147C0.187,-0.088 0.212,-0.059 0.261,-0.059C0.283,-0.059 0.304,-0.061 0.326,-0.066L0.322,-0.015C0.301,-0.012 0.277,-0.01 0.251,-0.01C0.167,-0.01 0.125,-0.051 0.125,-0.135L0.125,-0.472L0.039,-0.472L0.039,-0.522L0.125,-0.522L0.125,-0.687L0.187,-0.701Z" style="fill:white;fill-rule:nonzero;"/>
                    </g>
                    <g transform="matrix(24,0,0,24,360.41,0)">
                        <path d="M0.16,-0.522L0.16,-0.442C0.2,-0.503 0.251,-0.534 0.314,-0.534C0.377,-0.534 0.426,-0.508 0.463,-0.457C0.496,-0.41 0.512,-0.349 0.512,-0.274C0.512,-0.188 0.49,-0.12 0.446,-0.071C0.409,-0.03 0.363,-0.01 0.309,-0.01C0.247,-0.01 0.198,-0.04 0.162,-0.101L0.162,0.159L0.1,0.159L0.1,-0.522L0.16,-0.522ZM0.162,-0.38L0.162,-0.16C0.2,-0.095 0.246,-0.063 0.3,-0.063C0.347,-0.063 0.384,-0.083 0.411,-0.125C0.436,-0.162 0.448,-0.212 0.448,-0.273C0.448,-0.344 0.433,-0.398 0.403,-0.436C0.378,-0.467 0.346,-0.482 0.306,-0.482C0.247,-0.482 0.199,-0.448 0.162,-0.38Z" style="fill:white;fill-rule:nonzero;"/>
                    </g>
                    <g transform="matrix(24,0,0,24,374.332,0)">
                        <path d="M0.162,-0.764L0.162,-0.431C0.219,-0.5 0.279,-0.534 0.343,-0.534C0.388,-0.534 0.423,-0.52 0.449,-0.492C0.472,-0.467 0.483,-0.434 0.483,-0.394L0.483,-0.022L0.42,-0.022L0.42,-0.367C0.42,-0.441 0.389,-0.478 0.327,-0.478C0.27,-0.478 0.215,-0.443 0.162,-0.374L0.162,-0.022L0.1,-0.022L0.1,-0.764L0.162,-0.764Z" style="fill:white;fill-rule:nonzero;"/>
                    </g>
                    <g transform="matrix(24,0,0,24,388.254,0)">
                        <path d="M0.281,-0.534C0.347,-0.534 0.401,-0.508 0.44,-0.455C0.475,-0.408 0.493,-0.347 0.493,-0.274C0.493,-0.189 0.47,-0.122 0.425,-0.073C0.386,-0.031 0.338,-0.01 0.28,-0.01C0.212,-0.01 0.159,-0.036 0.12,-0.09C0.085,-0.137 0.068,-0.197 0.068,-0.271C0.068,-0.356 0.09,-0.423 0.135,-0.472C0.174,-0.513 0.222,-0.534 0.281,-0.534ZM0.281,-0.483C0.231,-0.483 0.193,-0.463 0.167,-0.421C0.144,-0.384 0.132,-0.335 0.132,-0.273C0.132,-0.201 0.147,-0.147 0.177,-0.109C0.203,-0.077 0.237,-0.061 0.28,-0.061C0.329,-0.061 0.367,-0.082 0.394,-0.124C0.417,-0.161 0.429,-0.21 0.429,-0.273C0.429,-0.344 0.414,-0.398 0.384,-0.435C0.358,-0.467 0.323,-0.483 0.281,-0.483Z" style="fill:white;fill-rule:nonzero;"/>
                    </g>
                    <g transform="matrix(24,0,0,24,401.719,0)">
                        <path d="M0.16,-0.522L0.16,-0.429C0.216,-0.499 0.277,-0.534 0.343,-0.534C0.388,-0.534 0.423,-0.52 0.449,-0.492C0.472,-0.467 0.483,-0.434 0.483,-0.393L0.483,-0.022L0.42,-0.022L0.42,-0.367C0.42,-0.441 0.389,-0.478 0.327,-0.478C0.269,-0.478 0.214,-0.443 0.162,-0.374L0.162,-0.022L0.1,-0.022L0.1,-0.522L0.16,-0.522Z" style="fill:white;fill-rule:nonzero;"/>
                    </g>
                    <g transform="matrix(24,0,0,24,415.641,0)">
                        <path d="M0.492,-0.267L0.129,-0.267C0.129,-0.197 0.146,-0.143 0.18,-0.105C0.208,-0.074 0.244,-0.059 0.288,-0.059C0.36,-0.059 0.407,-0.094 0.43,-0.166L0.488,-0.144C0.453,-0.055 0.386,-0.01 0.287,-0.01C0.217,-0.01 0.162,-0.036 0.122,-0.089C0.086,-0.136 0.068,-0.197 0.068,-0.271C0.068,-0.356 0.091,-0.423 0.137,-0.472C0.175,-0.513 0.224,-0.534 0.282,-0.534C0.348,-0.534 0.4,-0.509 0.439,-0.458C0.474,-0.412 0.492,-0.354 0.492,-0.283L0.492,-0.267ZM0.43,-0.314C0.425,-0.372 0.408,-0.416 0.379,-0.446C0.354,-0.472 0.322,-0.484 0.283,-0.484C0.238,-0.484 0.201,-0.467 0.173,-0.432C0.149,-0.402 0.134,-0.362 0.131,-0.314L0.43,-0.314Z" style="fill:white;fill-rule:nonzero;"/>
                    </g>
                    <g transform="matrix(24,0,0,24,429.035,0)">
                        <path d="M0.431,-0.416L0.371,-0.395C0.352,-0.455 0.312,-0.485 0.249,-0.485C0.211,-0.485 0.182,-0.477 0.162,-0.46C0.144,-0.446 0.135,-0.428 0.135,-0.405C0.135,-0.377 0.144,-0.357 0.162,-0.343C0.177,-0.331 0.205,-0.321 0.245,-0.312L0.285,-0.303C0.347,-0.289 0.389,-0.27 0.413,-0.247C0.434,-0.225 0.444,-0.195 0.444,-0.157C0.444,-0.111 0.427,-0.075 0.391,-0.048C0.358,-0.022 0.312,-0.01 0.254,-0.01C0.154,-0.01 0.088,-0.05 0.057,-0.131L0.117,-0.154C0.139,-0.09 0.185,-0.059 0.255,-0.059C0.302,-0.059 0.336,-0.069 0.358,-0.09C0.375,-0.107 0.383,-0.127 0.383,-0.151C0.383,-0.182 0.375,-0.204 0.357,-0.218C0.34,-0.23 0.309,-0.242 0.264,-0.252L0.224,-0.261C0.165,-0.275 0.125,-0.293 0.103,-0.318C0.085,-0.338 0.076,-0.365 0.076,-0.4C0.076,-0.442 0.093,-0.475 0.125,-0.5C0.156,-0.523 0.198,-0.534 0.25,-0.534C0.34,-0.534 0.401,-0.495 0.431,-0.416Z" style="fill:white;fill-rule:nonzero;"/>
                    </g>
                    <g transform="matrix(24,0,0,24,448.09,0)">
                        <path d="M0.086,-0.406C0.116,-0.491 0.181,-0.534 0.283,-0.534C0.401,-0.534 0.46,-0.479 0.46,-0.368L0.46,-0.192C0.46,-0.125 0.464,-0.069 0.472,-0.022L0.414,-0.022C0.41,-0.041 0.406,-0.07 0.403,-0.11C0.359,-0.043 0.299,-0.01 0.222,-0.01C0.169,-0.01 0.129,-0.025 0.101,-0.056C0.077,-0.081 0.065,-0.114 0.065,-0.155C0.065,-0.245 0.121,-0.3 0.234,-0.319C0.278,-0.326 0.333,-0.332 0.4,-0.335L0.4,-0.362C0.4,-0.409 0.389,-0.442 0.369,-0.461C0.35,-0.477 0.321,-0.485 0.282,-0.485C0.21,-0.485 0.164,-0.452 0.144,-0.385L0.086,-0.406ZM0.4,-0.289C0.35,-0.288 0.299,-0.283 0.247,-0.273C0.167,-0.257 0.127,-0.218 0.127,-0.158C0.127,-0.125 0.137,-0.1 0.158,-0.083C0.177,-0.067 0.202,-0.059 0.233,-0.059C0.3,-0.059 0.356,-0.095 0.4,-0.167L0.4,-0.289Z" style="fill:white;fill-rule:nonzero;"/>
                    </g>
                    <g transform="matrix(24,0,0,24,461.484,0)">
                        <path d="M0.431,-0.416L0.371,-0.395C0.352,-0.455 0.312,-0.485 0.249,-0.485C0.211,-0.485 0.182,-0.477 0.162,-0.46C0.144,-0.446 0.135,-0.428 0.135,-0.405C0.135,-0.377 0.144,-0.357 0.162,-0.343C0.177,-0.331 0.205,-0.321 0.245,-0.312L0.285,-0.303C0.347,-0.289 0.389,-0.27 0.413,-0.247C0.434,-0.225 0.444,-0.195 0.444,-0.157C0.444,-0.111 0.427,-0.075 0.391,-0.048C0.358,-0.022 0.312,-0.01 0.254,-0.01C0.154,-0.01 0.088,-0.05 0.057,-0.131L0.117,-0.154C0.139,-0.09 0.185,-0.059 0.255,-0.059C0.302,-0.059 0.336,-0.069 0.358,-0.09C0.375,-0.107 0.383,-0.127 0.383,-0.151C0.383,-0.182 0.375,-0.204 0.357,-0.218C0.34,-0.23 0.309,-0.242 0.264,-0.252L0.224,-0.261C0.165,-0.275 0.125,-0.293 0.103,-0.318C0.085,-0.338 0.076,-0.365 0.076,-0.4C0.076,-0.442 0.093,-0.475 0.125,-0.5C0.156,-0.523 0.198,-0.534 0.25,-0.534C0.34,-0.534 0.401,-0.495 0.431,-0.416Z" style="fill:white;fill-rule:nonzero;"/>
                    </g>
                    <g transform="matrix(24,0,0,24,480.539,0)">
                        <path d="M0.281,-0.534C0.347,-0.534 0.401,-0.508 0.44,-0.455C0.475,-0.408 0.493,-0.347 0.493,-0.274C0.493,-0.189 0.47,-0.122 0.425,-0.073C0.386,-0.031 0.338,-0.01 0.28,-0.01C0.212,-0.01 0.159,-0.036 0.12,-0.09C0.085,-0.137 0.068,-0.197 0.068,-0.271C0.068,-0.356 0.09,-0.423 0.135,-0.472C0.174,-0.513 0.222,-0.534 0.281,-0.534ZM0.281,-0.483C0.231,-0.483 0.193,-0.463 0.167,-0.421C0.144,-0.384 0.132,-0.335 0.132,-0.273C0.132,-0.201 0.147,-0.147 0.177,-0.109C0.203,-0.077 0.237,-0.061 0.28,-0.061C0.329,-0.061 0.367,-0.082 0.394,-0.124C0.417,-0.161 0.429,-0.21 0.429,-0.273C0.429,-0.344 0.414,-0.398 0.384,-0.435C0.358,-0.467 0.323,-0.483 0.281,-0.483Z" style="fill:white;fill-rule:nonzero;"/>
                    </g>
                    <g transform="matrix(24,0,0,24,494.004,0)">
                        <path d="M0.16,-0.522L0.16,-0.429C0.216,-0.499 0.277,-0.534 0.343,-0.534C0.388,-0.534 0.423,-0.52 0.449,-0.492C0.472,-0.467 0.483,-0.434 0.483,-0.393L0.483,-0.022L0.42,-0.022L0.42,-0.367C0.42,-0.441 0.389,-0.478 0.327,-0.478C0.269,-0.478 0.214,-0.443 0.162,-0.374L0.162,-0.022L0.1,-0.022L0.1,-0.522L0.16,-0.522Z" style="fill:white;fill-rule:nonzero;"/>
                    </g>
                    <g transform="matrix(24,0,0,24,507.926,0)">
                        <path d="M0.492,-0.267L0.129,-0.267C0.129,-0.197 0.146,-0.143 0.18,-0.105C0.208,-0.074 0.244,-0.059 0.288,-0.059C0.36,-0.059 0.407,-0.094 0.43,-0.166L0.488,-0.144C0.453,-0.055 0.386,-0.01 0.287,-0.01C0.217,-0.01 0.162,-0.036 0.122,-0.089C0.086,-0.136 0.068,-0.197 0.068,-0.271C0.068,-0.356 0.091,-0.423 0.137,-0.472C0.175,-0.513 0.224,-0.534 0.282,-0.534C0.348,-0.534 0.4,-0.509 0.439,-0.458C0.474,-0.412 0.492,-0.354 0.492,-0.283L0.492,-0.267ZM0.43,-0.314C0.425,-0.372 0.408,-0.416 0.379,-0.446C0.354,-0.472 0.322,-0.484 0.283,-0.484C0.238,-0.484 0.201,-0.467 0.173,-0.432C0.149,-0.402 0.134,-0.362 0.131,-0.314L0.43,-0.314Z" style="fill:white;fill-rule:nonzero;"/>
                    </g>
                    <g transform="matrix(24,0,0,24,528.164,0)">
                        <rect x="0.1" y="-0.764" width="0.062" height="0.742" style="fill:white;fill-rule:nonzero;"/>
                    </g>
                    <g transform="matrix(24,0,0,24,534.457,0)">
                        <path d="M0.086,-0.406C0.116,-0.491 0.181,-0.534 0.283,-0.534C0.401,-0.534 0.46,-0.479 0.46,-0.368L0.46,-0.192C0.46,-0.125 0.464,-0.069 0.472,-0.022L0.414,-0.022C0.41,-0.041 0.406,-0.07 0.403,-0.11C0.359,-0.043 0.299,-0.01 0.222,-0.01C0.169,-0.01 0.129,-0.025 0.101,-0.056C0.077,-0.081 0.065,-0.114 0.065,-0.155C0.065,-0.245 0.121,-0.3 0.234,-0.319C0.278,-0.326 0.333,-0.332 0.4,-0.335L0.4,-0.362C0.4,-0.409 0.389,-0.442 0.369,-0.461C0.35,-0.477 0.321,-0.485 0.282,-0.485C0.21,-0.485 0.164,-0.452 0.144,-0.385L0.086,-0.406ZM0.4,-0.289C0.35,-0.288 0.299,-0.283 0.247,-0.273C0.167,-0.257 0.127,-0.218 0.127,-0.158C0.127,-0.125 0.137,-0.1 0.158,-0.083C0.177,-0.067 0.202,-0.059 0.233,-0.059C0.3,-0.059 0.356,-0.095 0.4,-0.167L0.4,-0.289Z" style="fill:white;fill-rule:nonzero;"/>
                    </g>
                    <g transform="matrix(24,0,0,24,547.852,0)">
                        <path d="M0.327,-0.534L0.322,-0.472C0.287,-0.472 0.255,-0.457 0.225,-0.427C0.197,-0.399 0.175,-0.361 0.161,-0.315L0.161,-0.022L0.1,-0.022L0.1,-0.522L0.159,-0.522L0.159,-0.392C0.179,-0.442 0.205,-0.479 0.238,-0.504C0.266,-0.524 0.295,-0.534 0.327,-0.534Z" style="fill:white;fill-rule:nonzero;"/>
                    </g>
                    <g transform="matrix(24,0,0,24,556.582,0)">
                        <path d="M0.505,-0.583L0.5,-0.526C0.473,-0.526 0.452,-0.522 0.435,-0.515C0.422,-0.509 0.408,-0.5 0.394,-0.486C0.429,-0.458 0.447,-0.419 0.447,-0.369C0.447,-0.315 0.427,-0.273 0.388,-0.243C0.355,-0.217 0.314,-0.204 0.264,-0.204C0.234,-0.204 0.206,-0.209 0.181,-0.22C0.147,-0.201 0.131,-0.181 0.131,-0.16C0.131,-0.142 0.138,-0.13 0.152,-0.124C0.166,-0.117 0.194,-0.112 0.237,-0.108L0.335,-0.098C0.403,-0.091 0.45,-0.076 0.476,-0.053C0.495,-0.035 0.505,-0.011 0.505,0.02C0.505,0.064 0.483,0.099 0.438,0.124C0.397,0.147 0.341,0.159 0.271,0.159C0.196,0.159 0.139,0.146 0.1,0.121C0.067,0.099 0.05,0.071 0.05,0.036C0.05,0.011 0.06,-0.011 0.081,-0.031C0.098,-0.049 0.122,-0.062 0.152,-0.072C0.101,-0.083 0.076,-0.107 0.076,-0.145C0.076,-0.178 0.099,-0.21 0.145,-0.242C0.103,-0.272 0.082,-0.314 0.082,-0.368C0.082,-0.421 0.102,-0.463 0.143,-0.495C0.176,-0.521 0.217,-0.534 0.265,-0.534C0.302,-0.534 0.334,-0.527 0.361,-0.511C0.38,-0.538 0.402,-0.557 0.426,-0.568C0.447,-0.578 0.474,-0.583 0.505,-0.583ZM0.265,-0.49C0.227,-0.49 0.197,-0.478 0.173,-0.454C0.152,-0.432 0.141,-0.403 0.141,-0.368C0.141,-0.329 0.155,-0.298 0.182,-0.275C0.204,-0.257 0.231,-0.248 0.264,-0.248C0.302,-0.248 0.332,-0.26 0.355,-0.284C0.377,-0.306 0.388,-0.334 0.388,-0.368C0.388,-0.409 0.374,-0.44 0.347,-0.462C0.325,-0.481 0.297,-0.49 0.265,-0.49ZM0.205,-0.06C0.139,-0.042 0.107,-0.013 0.107,0.028C0.107,0.059 0.124,0.081 0.159,0.097C0.188,0.109 0.226,0.115 0.273,0.115C0.332,0.115 0.378,0.106 0.409,0.086C0.435,0.07 0.448,0.05 0.448,0.026C0.448,0.004 0.438,-0.012 0.419,-0.023C0.4,-0.035 0.367,-0.043 0.32,-0.048L0.205,-0.06Z" style="fill:white;fill-rule:nonzero;"/>
                    </g>
                    <g transform="matrix(24,0,0,24,569.73,0)">
                        <path d="M0.492,-0.267L0.129,-0.267C0.129,-0.197 0.146,-0.143 0.18,-0.105C0.208,-0.074 0.244,-0.059 0.288,-0.059C0.36,-0.059 0.407,-0.094 0.43,-0.166L0.488,-0.144C0.453,-0.055 0.386,-0.01 0.287,-0.01C0.217,-0.01 0.162,-0.036 0.122,-0.089C0.086,-0.136 0.068,-0.197 0.068,-0.271C0.068,-0.356 0.091,-0.423 0.137,-0.472C0.175,-0.513 0.224,-0.534 0.282,-0.534C0.348,-0.534 0.4,-0.509 0.439,-0.458C0.474,-0.412 0.492,-0.354 0.492,-0.283L0.492,-0.267ZM0.43,-0.314C0.425,-0.372 0.408,-0.416 0.379,-0.446C0.354,-0.472 0.322,-0.484 0.283,-0.484C0.238,-0.484 0.201,-0.467 0.173,-0.432C0.149,-0.402 0.134,-0.362 0.131,-0.314L0.43,-0.314Z" style="fill:white;fill-rule:nonzero;"/>
                    </g>
                    <g transform="matrix(24,0,0,24,589.969,0)">
                        <path d="M0.48,-0.764L0.48,-0.022L0.42,-0.022L0.42,-0.099C0.383,-0.04 0.333,-0.01 0.269,-0.01C0.206,-0.01 0.156,-0.036 0.119,-0.089C0.085,-0.137 0.068,-0.199 0.068,-0.274C0.068,-0.36 0.089,-0.426 0.132,-0.474C0.167,-0.514 0.212,-0.534 0.266,-0.534C0.329,-0.534 0.379,-0.505 0.418,-0.447L0.418,-0.764L0.48,-0.764ZM0.418,-0.38C0.383,-0.447 0.335,-0.48 0.276,-0.48C0.23,-0.48 0.194,-0.46 0.167,-0.419C0.144,-0.383 0.132,-0.334 0.132,-0.273C0.132,-0.202 0.148,-0.148 0.18,-0.11C0.207,-0.079 0.24,-0.063 0.281,-0.063C0.335,-0.063 0.381,-0.095 0.418,-0.16L0.418,-0.38Z" style="fill:white;fill-rule:nonzero;"/>
                    </g>
                    <g transform="matrix(24,0,0,24,603.844,0)">
                        <path d="M0.162,-0.522L0.162,-0.022L0.1,-0.022L0.1,-0.522L0.162,-0.522ZM0.177,-0.723L0.177,-0.63L0.085,-0.63L0.085,-0.723L0.177,-0.723Z" style="fill:white;fill-rule:nonzero;"/>
                    </g>
                    <g transform="matrix(24,0,0,24,610.137,0)">
                        <path d="M0.431,-0.416L0.371,-0.395C0.352,-0.455 0.312,-0.485 0.249,-0.485C0.211,-0.485 0.182,-0.477 0.162,-0.46C0.144,-0.446 0.135,-0.428 0.135,-0.405C0.135,-0.377 0.144,-0.357 0.162,-0.343C0.177,-0.331 0.205,-0.321 0.245,-0.312L0.285,-0.303C0.347,-0.289 0.389,-0.27 0.413,-0.247C0.434,-0.225 0.444,-0.195 0.444,-0.157C0.444,-0.111 0.427,-0.075 0.391,-0.048C0.358,-0.022 0.312,-0.01 0.254,-0.01C0.154,-0.01 0.088,-0.05 0.057,-0.131L0.117,-0.154C0.139,-0.09 0.185,-0.059 0.255,-0.059C0.302,-0.059 0.336,-0.069 0.358,-0.09C0.375,-0.107 0.383,-0.127 0.383,-0.151C0.383,-0.182 0.375,-0.204 0.357,-0.218C0.34,-0.23 0.309,-0.242 0.264,-0.252L0.224,-0.261C0.165,-0.275 0.125,-0.293 0.103,-0.318C0.085,-0.338 0.076,-0.365 0.076,-0.4C0.076,-0.442 0.093,-0.475 0.125,-0.5C0.156,-0.523 0.198,-0.534 0.25,-0.534C0.34,-0.534 0.401,-0.495 0.431,-0.416Z" style="fill:white;fill-rule:nonzero;"/>
                    </g>
                    <g transform="matrix(24,0,0,24,622.348,0)">
                        <path d="M0.16,-0.522L0.16,-0.442C0.2,-0.503 0.251,-0.534 0.314,-0.534C0.377,-0.534 0.426,-0.508 0.463,-0.457C0.496,-0.41 0.512,-0.349 0.512,-0.274C0.512,-0.188 0.49,-0.12 0.446,-0.071C0.409,-0.03 0.363,-0.01 0.309,-0.01C0.247,-0.01 0.198,-0.04 0.162,-0.101L0.162,0.159L0.1,0.159L0.1,-0.522L0.16,-0.522ZM0.162,-0.38L0.162,-0.16C0.2,-0.095 0.246,-0.063 0.3,-0.063C0.347,-0.063 0.384,-0.083 0.411,-0.125C0.436,-0.162 0.448,-0.212 0.448,-0.273C0.448,-0.344 0.433,-0.398 0.403,-0.436C0.378,-0.467 0.346,-0.482 0.306,-0.482C0.247,-0.482 0.199,-0.448 0.162,-0.38Z" style="fill:white;fill-rule:nonzero;"/>
                    </g>
                    <g transform="matrix(24,0,0,24,636.27,0)">
                        <rect x="0.1" y="-0.764" width="0.062" height="0.742" style="fill:white;fill-rule:nonzero;"/>
                    </g>
                    <g transform="matrix(24,0,0,24,642.562,0)">
                        <path d="M0.086,-0.406C0.116,-0.491 0.181,-0.534 0.283,-0.534C0.401,-0.534 0.46,-0.479 0.46,-0.368L0.46,-0.192C0.46,-0.125 0.464,-0.069 0.472,-0.022L0.414,-0.022C0.41,-0.041 0.406,-0.07 0.403,-0.11C0.359,-0.043 0.299,-0.01 0.222,-0.01C0.169,-0.01 0.129,-0.025 0.101,-0.056C0.077,-0.081 0.065,-0.114 0.065,-0.155C0.065,-0.245 0.121,-0.3 0.234,-0.319C0.278,-0.326 0.333,-0.332 0.4,-0.335L0.4,-0.362C0.4,-0.409 0.389,-0.442 0.369,-0.461C0.35,-0.477 0.321,-0.485 0.282,-0.485C0.21,-0.485 0.164,-0.452 0.144,-0.385L0.086,-0.406ZM0.4,-0.289C0.35,-0.288 0.299,-0.283 0.247,-0.273C0.167,-0.257 0.127,-0.218 0.127,-0.158C0.127,-0.125 0.137,-0.1 0.158,-0.083C0.177,-0.067 0.202,-0.059 0.233,-0.059C0.3,-0.059 0.356,-0.095 0.4,-0.167L0.4,-0.289Z" style="fill:white;fill-rule:nonzero;"/>
                    </g>
                    <g transform="matrix(24,0,0,24,655.957,0)">
                        <path d="M0.453,-0.522L0.264,0.004C0.243,0.064 0.217,0.106 0.185,0.129C0.159,0.149 0.126,0.159 0.087,0.159C0.07,0.159 0.055,0.158 0.042,0.155L0.037,0.101C0.055,0.105 0.072,0.107 0.087,0.107C0.118,0.107 0.142,0.097 0.162,0.077C0.179,0.06 0.195,0.032 0.209,-0.007L0.218,-0.031L0.04,-0.522L0.107,-0.522L0.215,-0.2C0.222,-0.18 0.232,-0.146 0.245,-0.099L0.25,-0.099C0.255,-0.113 0.261,-0.132 0.268,-0.155C0.276,-0.178 0.281,-0.194 0.283,-0.202L0.389,-0.522L0.453,-0.522Z" style="fill:white;fill-rule:nonzero;"/>
                    </g>
                    <g transform="matrix(24,0,0,24,666.211,0)">
                        <rect x="0.079" y="-0.124" width="0.1" height="0.102" style="fill:white;fill-rule:nonzero;"/>
                    </g>
                </g>
            </g>
            <path d="M0.5,507.5L17.815,492.5L17.815,504.689L700.185,504.689L700.185,492.5L717.5,507.5L700.185,522.5L700.185,510.312L17.815,510.312L17.815,522.5L0.5,507.5Z" style="fill:rgb(112,173,71);stroke:rgb(80,126,50);stroke-width:1.33px;"/>
            <path d="M0.5,256L17.238,241.5L17.238,253.282L215.762,253.282L215.762,241.5L232.5,256L215.762,270.5L215.762,258.718L17.238,258.718L17.238,270.5L0.5,256Z" style="fill:rgb(112,173,71);stroke:rgb(80,126,50);stroke-width:1.33px;"/>
            <path d="M1121.5,114.5L1138.82,99.5L1138.82,111.689L1263.18,111.689L1263.18,99.5L1280.5,114.5L1263.18,129.5L1263.18,117.312L1138.82,117.312L1138.82,129.5L1121.5,114.5Z" style="fill:rgb(112,173,71);stroke:rgb(80,126,50);stroke-width:1.33px;"/>
            <path d="M344.5,337.501L361.815,322.5L361.815,334.689L1263.19,334.689L1263.19,322.5L1280.5,337.501L1263.19,352.5L1263.19,340.311L361.815,340.311L361.815,352.5L344.5,337.501Z" style="fill:rgb(112,173,71);stroke:rgb(80,126,50);stroke-width:1.33px;"/>
            <rect x="35" y="202" width="162" height="39" style="fill:rgb(89,89,89);"/>
            <g transform="matrix(1,0,0,1,44.6906,229)">
                <g transform="matrix(24,0,0,24,0,0)">
                    <path d="M0.322,-0.749L0.322,-0.075L0.457,-0.075L0.457,-0.022L0.116,-0.022L0.116,-0.075L0.26,-0.075L0.26,-0.681C0.218,-0.652 0.169,-0.627 0.113,-0.606L0.102,-0.664C0.157,-0.683 0.214,-0.711 0.271,-0.749L0.322,-0.749Z" style="fill:white;fill-rule:nonzero;"/>
                </g>
                <g transform="matrix(24,0,0,24,13.3476,0)">
                    <rect x="0.079" y="-0.124" width="0.1" height="0.102" style="fill:white;fill-rule:nonzero;"/>
                </g>
                <g transform="matrix(1,0,0,1,36,0)">
                    <g transform="matrix(24,0,0,24,0,0)">
                        <path d="M0.113,-0.751L0.348,-0.751C0.435,-0.751 0.5,-0.731 0.542,-0.692C0.578,-0.658 0.596,-0.612 0.596,-0.552C0.596,-0.484 0.571,-0.432 0.522,-0.396C0.478,-0.364 0.418,-0.348 0.342,-0.348L0.179,-0.348L0.179,-0.022L0.113,-0.022L0.113,-0.751ZM0.179,-0.696L0.179,-0.402L0.338,-0.402C0.464,-0.402 0.527,-0.451 0.527,-0.551C0.527,-0.647 0.466,-0.696 0.344,-0.696L0.179,-0.696Z" style="fill:white;fill-rule:nonzero;"/>
                    </g>
                    <g transform="matrix(24,0,0,24,15.5039,0)">
                        <path d="M0.327,-0.534L0.322,-0.472C0.287,-0.472 0.255,-0.457 0.225,-0.427C0.197,-0.399 0.175,-0.361 0.161,-0.315L0.161,-0.022L0.1,-0.022L0.1,-0.522L0.159,-0.522L0.159,-0.392C0.179,-0.442 0.205,-0.479 0.238,-0.504C0.266,-0.524 0.295,-0.534 0.327,-0.534Z" style="fill:white;fill-rule:nonzero;"/>
                    </g>
                    <g transform="matrix(24,0,0,24,24.2344,0)">
                        <path d="M0.492,-0.267L0.129,-0.267C0.129,-0.197 0.146,-0.143 0.18,-0.105C0.208,-0.074 0.244,-0.059 0.288,-0.059C0.36,-0.059 0.407,-0.094 0.43,-0.166L0.488,-0.144C0.453,-0.055 0.386,-0.01 0.287,-0.01C0.217,-0.01 0.162,-0.036 0.122,-0.089C0.086,-0.136 0.068,-0.197 0.068,-0.271C0.068,-0.356 0.091,-0.423 0.137,-0.472C0.175,-0.513 0.224,-0.534 0.282,-0.534C0.348,-0.534 0.4,-0.509 0.439,-0.458C0.474,-0.412 0.492,-0.354 0.492,-0.283L0.492,-0.267ZM0.43,-0.314C0.425,-0.372 0.408,-0.416 0.379,-0.446C0.354,-0.472 0.322,-0.484 0.283,-0.484C0.238,-0.484 0.201,-0.467 0.173,-0.432C0.149,-0.402 0.134,-0.362 0.131,-0.314L0.43,-0.314Z" style="fill:white;fill-rule:nonzero;"/>
                    </g>
                    <g transform="matrix(24,0,0,24,37.6289,0)">
                        <path d="M0.466,-0.391L0.405,-0.373C0.387,-0.447 0.345,-0.483 0.278,-0.483C0.229,-0.483 0.191,-0.463 0.164,-0.421C0.141,-0.384 0.129,-0.334 0.129,-0.273C0.129,-0.201 0.144,-0.147 0.175,-0.109C0.201,-0.077 0.235,-0.061 0.278,-0.061C0.348,-0.061 0.392,-0.098 0.41,-0.173L0.47,-0.153C0.438,-0.057 0.375,-0.01 0.278,-0.01C0.209,-0.01 0.155,-0.036 0.116,-0.089C0.082,-0.136 0.065,-0.196 0.065,-0.271C0.065,-0.356 0.087,-0.423 0.132,-0.472C0.17,-0.513 0.219,-0.534 0.278,-0.534C0.327,-0.534 0.368,-0.521 0.401,-0.493C0.432,-0.469 0.453,-0.435 0.466,-0.391Z" style="fill:white;fill-rule:nonzero;"/>
                    </g>
                    <g transform="matrix(24,0,0,24,50.0156,0)">
                        <path d="M0.162,-0.522L0.162,-0.022L0.1,-0.022L0.1,-0.522L0.162,-0.522ZM0.177,-0.723L0.177,-0.63L0.085,-0.63L0.085,-0.723L0.177,-0.723Z" style="fill:white;fill-rule:nonzero;"/>
                    </g>
                    <g transform="matrix(24,0,0,24,56.3086,0)">
                        <path d="M0.431,-0.416L0.371,-0.395C0.352,-0.455 0.312,-0.485 0.249,-0.485C0.211,-0.485 0.182,-0.477 0.162,-0.46C0.144,-0.446 0.135,-0.428 0.135,-0.405C0.135,-0.377 0.144,-0.357 0.162,-0.343C0.177,-0.331 0.205,-0.321 0.245,-0.312L0.285,-0.303C0.347,-0.289 0.389,-0.27 0.413,-0.247C0.434,-0.225 0.444,-0.195 0.444,-0.157C0.444,-0.111 0.427,-0.075 0.391,-0.048C0.358,-0.022 0.312,-0.01 0.254,-0.01C0.154,-0.01 0.088,-0.05 0.057,-0.131L0.117,-0.154C0.139,-0.09 0.185,-0.059 0.255,-0.059C0.302,-0.059 0.336,-0.069 0.358,-0.09C0.375,-0.107 0.383,-0.127 0.383,-0.151C0.383,-0.182 0.375,-0.204 0.357,-0.218C0.34,-0.23 0.309,-0.242 0.264,-0.252L0.224,-0.261C0.165,-0.275 0.125,-0.293 0.103,-0.318C0.085,-0.338 0.076,-0.365 0.076,-0.4C0.076,-0.442 0.093,-0.475 0.125,-0.5C0.156,-0.523 0.198,-0.534 0.25,-0.534C0.34,-0.534 0.401,-0.495 0.431,-0.416Z" style="fill:white;fill-rule:nonzero;"/>
                    </g>
                    <g transform="matrix(24,0,0,24,68.5195,0)">
                        <path d="M0.162,-0.522L0.162,-0.022L0.1,-0.022L0.1,-0.522L0.162,-0.522ZM0.177,-0.723L0.177,-0.63L0.085,-0.63L0.085,-0.723L0.177,-0.723Z" style="fill:white;fill-rule:nonzero;"/>
                    </g>
                    <g transform="matrix(24,0,0,24,74.8125,0)">
                        <path d="M0.16,-0.522L0.16,-0.429C0.216,-0.499 0.277,-0.534 0.343,-0.534C0.388,-0.534 0.423,-0.52 0.449,-0.492C0.472,-0.467 0.483,-0.434 0.483,-0.393L0.483,-0.022L0.42,-0.022L0.42,-0.367C0.42,-0.441 0.389,-0.478 0.327,-0.478C0.269,-0.478 0.214,-0.443 0.162,-0.374L0.162,-0.022L0.1,-0.022L0.1,-0.522L0.16,-0.522Z" style="fill:white;fill-rule:nonzero;"/>
                    </g>
                    <g transform="matrix(24,0,0,24,88.7344,0)">
                        <path d="M0.505,-0.583L0.5,-0.526C0.473,-0.526 0.452,-0.522 0.435,-0.515C0.422,-0.509 0.408,-0.5 0.394,-0.486C0.429,-0.458 0.447,-0.419 0.447,-0.369C0.447,-0.315 0.427,-0.273 0.388,-0.243C0.355,-0.217 0.314,-0.204 0.264,-0.204C0.234,-0.204 0.206,-0.209 0.181,-0.22C0.147,-0.201 0.131,-0.181 0.131,-0.16C0.131,-0.142 0.138,-0.13 0.152,-0.124C0.166,-0.117 0.194,-0.112 0.237,-0.108L0.335,-0.098C0.403,-0.091 0.45,-0.076 0.476,-0.053C0.495,-0.035 0.505,-0.011 0.505,0.02C0.505,0.064 0.483,0.099 0.438,0.124C0.397,0.147 0.341,0.159 0.271,0.159C0.196,0.159 0.139,0.146 0.1,0.121C0.067,0.099 0.05,0.071 0.05,0.036C0.05,0.011 0.06,-0.011 0.081,-0.031C0.098,-0.049 0.122,-0.062 0.152,-0.072C0.101,-0.083 0.076,-0.107 0.076,-0.145C0.076,-0.178 0.099,-0.21 0.145,-0.242C0.103,-0.272 0.082,-0.314 0.082,-0.368C0.082,-0.421 0.102,-0.463 0.143,-0.495C0.176,-0.521 0.217,-0.534 0.265,-0.534C0.302,-0.534 0.334,-0.527 0.361,-0.511C0.38,-0.538 0.402,-0.557 0.426,-0.568C0.447,-0.578 0.474,-0.583 0.505,-0.583ZM0.265,-0.49C0.227,-0.49 0.197,-0.478 0.173,-0.454C0.152,-0.432 0.141,-0.403 0.141,-0.368C0.141,-0.329 0.155,-0.298 0.182,-0.275C0.204,-0.257 0.231,-0.248 0.264,-0.248C0.302,-0.248 0.332,-0.26 0.355,-0.284C0.377,-0.306 0.388,-0.334 0.388,-0.368C0.388,-0.409 0.374,-0.44 0.347,-0.462C0.325,-0.481 0.297,-0.49 0.265,-0.49ZM0.205,-0.06C0.139,-0.042 0.107,-0.013 0.107,0.028C0.107,0.059 0.124,0.081 0.159,0.097C0.188,0.109 0.226,0.115 0.273,0.115C0.332,0.115 0.378,0.106 0.409,0.086C0.435,0.07 0.448,0.05 0.448,0.026C0.448,0.004 0.438,-0.012 0.419,-0.023C0.4,-0.035 0.367,-0.043 0.32,-0.048L0.205,-0.06Z" style="fill:white;fill-rule:nonzero;"/>
                    </g>
                </g>
            </g>
            <rect x="731" y="285" width="162" height="38" style="fill:rgb(89,89,89);"/>
            <g transform="matrix(1,0,0,1,740.762,311)">
                <g transform="matrix(24,0,0,24,0,0)">
                    <path d="M0.322,-0.749L0.322,-0.075L0.457,-0.075L0.457,-0.022L0.116,-0.022L0.116,-0.075L0.26,-0.075L0.26,-0.681C0.218,-0.652 0.169,-0.627 0.113,-0.606L0.102,-0.664C0.157,-0.683 0.214,-0.711 0.271,-0.749L0.322,-0.749Z" style="fill:white;fill-rule:nonzero;"/>
                </g>
                <g transform="matrix(24,0,0,24,13.3476,0)">
                    <rect x="0.079" y="-0.124" width="0.1" height="0.102" style="fill:white;fill-rule:nonzero;"/>
                </g>
                <g transform="matrix(1,0,0,1,36,0)">
                    <g transform="matrix(24,0,0,24,0,0)">
                        <path d="M0.113,-0.751L0.348,-0.751C0.435,-0.751 0.5,-0.731 0.542,-0.692C0.578,-0.658 0.596,-0.612 0.596,-0.552C0.596,-0.484 0.571,-0.432 0.522,-0.396C0.478,-0.364 0.418,-0.348 0.342,-0.348L0.179,-0.348L0.179,-0.022L0.113,-0.022L0.113,-0.751ZM0.179,-0.696L0.179,-0.402L0.338,-0.402C0.464,-0.402 0.527,-0.451 0.527,-0.551C0.527,-0.647 0.466,-0.696 0.344,-0.696L0.179,-0.696Z" style="fill:white;fill-rule:nonzero;"/>
                    </g>
                    <g transform="matrix(24,0,0,24,15.5039,0)">
                        <path d="M0.327,-0.534L0.322,-0.472C0.287,-0.472 0.255,-0.457 0.225,-0.427C0.197,-0.399 0.175,-0.361 0.161,-0.315L0.161,-0.022L0.1,-0.022L0.1,-0.522L0.159,-0.522L0.159,-0.392C0.179,-0.442 0.205,-0.479 0.238,-0.504C0.266,-0.524 0.295,-0.534 0.327,-0.534Z" style="fill:white;fill-rule:nonzero;"/>
                    </g>
                    <g transform="matrix(24,0,0,24,24.2344,0)">
                        <path d="M0.492,-0.267L0.129,-0.267C0.129,-0.197 0.146,-0.143 0.18,-0.105C0.208,-0.074 0.244,-0.059 0.288,-0.059C0.36,-0.059 0.407,-0.094 0.43,-0.166L0.488,-0.144C0.453,-0.055 0.386,-0.01 0.287,-0.01C0.217,-0.01 0.162,-0.036 0.122,-0.089C0.086,-0.136 0.068,-0.197 0.068,-0.271C0.068,-0.356 0.091,-0.423 0.137,-0.472C0.175,-0.513 0.224,-0.534 0.282,-0.534C0.348,-0.534 0.4,-0.509 0.439,-0.458C0.474,-0.412 0.492,-0.354 0.492,-0.283L0.492,-0.267ZM0.43,-0.314C0.425,-0.372 0.408,-0.416 0.379,-0.446C0.354,-0.472 0.322,-0.484 0.283,-0.484C0.238,-0.484 0.201,-0.467 0.173,-0.432C0.149,-0.402 0.134,-0.362 0.131,-0.314L0.43,-0.314Z" style="fill:white;fill-rule:nonzero;"/>
                    </g>
                    <g transform="matrix(24,0,0,24,37.6289,0)">
                        <path d="M0.466,-0.391L0.405,-0.373C0.387,-0.447 0.345,-0.483 0.278,-0.483C0.229,-0.483 0.191,-0.463 0.164,-0.421C0.141,-0.384 0.129,-0.334 0.129,-0.273C0.129,-0.201 0.144,-0.147 0.175,-0.109C0.201,-0.077 0.235,-0.061 0.278,-0.061C0.348,-0.061 0.392,-0.098 0.41,-0.173L0.47,-0.153C0.438,-0.057 0.375,-0.01 0.278,-0.01C0.209,-0.01 0.155,-0.036 0.116,-0.089C0.082,-0.136 0.065,-0.196 0.065,-0.271C0.065,-0.356 0.087,-0.423 0.132,-0.472C0.17,-0.513 0.219,-0.534 0.278,-0.534C0.327,-0.534 0.368,-0.521 0.401,-0.493C0.432,-0.469 0.453,-0.435 0.466,-0.391Z" style="fill:white;fill-rule:nonzero;"/>
                    </g>
                    <g transform="matrix(24,0,0,24,50.0156,0)">
                        <path d="M0.162,-0.522L0.162,-0.022L0.1,-0.022L0.1,-0.522L0.162,-0.522ZM0.177,-0.723L0.177,-0.63L0.085,-0.63L0.085,-0.723L0.177,-0.723Z" style="fill:white;fill-rule:nonzero;"/>
                    </g>
                    <g transform="matrix(24,0,0,24,56.3086,0)">
                        <path d="M0.431,-0.416L0.371,-0.395C0.352,-0.455 0.312,-0.485 0.249,-0.485C0.211,-0.485 0.182,-0.477 0.162,-0.46C0.144,-0.446 0.135,-0.428 0.135,-0.405C0.135,-0.377 0.144,-0.357 0.162,-0.343C0.177,-0.331 0.205,-0.321 0.245,-0.312L0.285,-0.303C0.347,-0.289 0.389,-0.27 0.413,-0.247C0.434,-0.225 0.444,-0.195 0.444,-0.157C0.444,-0.111 0.427,-0.075 0.391,-0.048C0.358,-0.022 0.312,-0.01 0.254,-0.01C0.154,-0.01 0.088,-0.05 0.057,-0.131L0.117,-0.154C0.139,-0.09 0.185,-0.059 0.255,-0.059C0.302,-0.059 0.336,-0.069 0.358,-0.09C0.375,-0.107 0.383,-0.127 0.383,-0.151C0.383,-0.182 0.375,-0.204 0.357,-0.218C0.34,-0.23 0.309,-0.242 0.264,-0.252L0.224,-0.261C0.165,-0.275 0.125,-0.293 0.103,-0.318C0.085,-0.338 0.076,-0.365 0.076,-0.4C0.076,-0.442 0.093,-0.475 0.125,-0.5C0.156,-0.523 0.198,-0.534 0.25,-0.534C0.34,-0.534 0.401,-0.495 0.431,-0.416Z" style="fill:white;fill-rule:nonzero;"/>
                    </g>
                    <g transform="matrix(24,0,0,24,68.5195,0)">
                        <path d="M0.162,-0.522L0.162,-0.022L0.1,-0.022L0.1,-0.522L0.162,-0.522ZM0.177,-0.723L0.177,-0.63L0.085,-0.63L0.085,-0.723L0.177,-0.723Z" style="fill:white;fill-rule:nonzero;"/>
                    </g>
                    <g transform="matrix(24,0,0,24,74.8125,0)">
                        <path d="M0.16,-0.522L0.16,-0.429C0.216,-0.499 0.277,-0.534 0.343,-0.534C0.388,-0.534 0.423,-0.52 0.449,-0.492C0.472,-0.467 0.483,-0.434 0.483,-0.393L0.483,-0.022L0.42,-0.022L0.42,-0.367C0.42,-0.441 0.389,-0.478 0.327,-0.478C0.269,-0.478 0.214,-0.443 0.162,-0.374L0.162,-0.022L0.1,-0.022L0.1,-0.522L0.16,-0.522Z" style="fill:white;fill-rule:nonzero;"/>
                    </g>
                    <g transform="matrix(24,0,0,24,88.7344,0)">
                        <path d="M0.505,-0.583L0.5,-0.526C0.473,-0.526 0.452,-0.522 0.435,-0.515C0.422,-0.509 0.408,-0.5 0.394,-0.486C0.429,-0.458 0.447,-0.419 0.447,-0.369C0.447,-0.315 0.427,-0.273 0.388,-0.243C0.355,-0.217 0.314,-0.204 0.264,-0.204C0.234,-0.204 0.206,-0.209 0.181,-0.22C0.147,-0.201 0.131,-0.181 0.131,-0.16C0.131,-0.142 0.138,-0.13 0.152,-0.124C0.166,-0.117 0.194,-0.112 0.237,-0.108L0.335,-0.098C0.403,-0.091 0.45,-0.076 0.476,-0.053C0.495,-0.035 0.505,-0.011 0.505,0.02C0.505,0.064 0.483,0.099 0.438,0.124C0.397,0.147 0.341,0.159 0.271,0.159C0.196,0.159 0.139,0.146 0.1,0.121C0.067,0.099 0.05,0.071 0.05,0.036C0.05,0.011 0.06,-0.011 0.081,-0.031C0.098,-0.049 0.122,-0.062 0.152,-0.072C0.101,-0.083 0.076,-0.107 0.076,-0.145C0.076,-0.178 0.099,-0.21 0.145,-0.242C0.103,-0.272 0.082,-0.314 0.082,-0.368C0.082,-0.421 0.102,-0.463 0.143,-0.495C0.176,-0.521 0.217,-0.534 0.265,-0.534C0.302,-0.534 0.334,-0.527 0.361,-0.511C0.38,-0.538 0.402,-0.557 0.426,-0.568C0.447,-0.578 0.474,-0.583 0.505,-0.583ZM0.265,-0.49C0.227,-0.49 0.197,-0.478 0.173,-0.454C0.152,-0.432 0.141,-0.403 0.141,-0.368C0.141,-0.329 0.155,-0.298 0.182,-0.275C0.204,-0.257 0.231,-0.248 0.264,-0.248C0.302,-0.248 0.332,-0.26 0.355,-0.284C0.377,-0.306 0.388,-0.334 0.388,-0.368C0.388,-0.409 0.374,-0.44 0.347,-0.462C0.325,-0.481 0.297,-0.49 0.265,-0.49ZM0.205,-0.06C0.139,-0.042 0.107,-0.013 0.107,0.028C0.107,0.059 0.124,0.081 0.159,0.097C0.188,0.109 0.226,0.115 0.273,0.115C0.332,0.115 0.378,0.106 0.409,0.086C0.435,0.07 0.448,0.05 0.448,0.026C0.448,0.004 0.438,-0.012 0.419,-0.023C0.4,-0.035 0.367,-0.043 0.32,-0.048L0.205,-0.06Z" style="fill:white;fill-rule:nonzero;"/>
                    </g>
                </g>
            </g>
            <rect x="277" y="453" width="162" height="39" style="fill:rgb(89,89,89);"/>
            <g transform="matrix(1,0,0,1,286.901,480)">
                <g transform="matrix(24,0,0,24,0,0)">
                    <path d="M0.322,-0.749L0.322,-0.075L0.457,-0.075L0.457,-0.022L0.116,-0.022L0.116,-0.075L0.26,-0.075L0.26,-0.681C0.218,-0.652 0.169,-0.627 0.113,-0.606L0.102,-0.664C0.157,-0.683 0.214,-0.711 0.271,-0.749L0.322,-0.749Z" style="fill:white;fill-rule:nonzero;"/>
                </g>
                <g transform="matrix(24,0,0,24,13.3476,0)">
                    <rect x="0.079" y="-0.124" width="0.1" height="0.102" style="fill:white;fill-rule:nonzero;"/>
                </g>
                <g transform="matrix(1,0,0,1,36,0)">
                    <g transform="matrix(24,0,0,24,0,0)">
                        <path d="M0.113,-0.751L0.348,-0.751C0.435,-0.751 0.5,-0.731 0.542,-0.692C0.578,-0.658 0.596,-0.612 0.596,-0.552C0.596,-0.484 0.571,-0.432 0.522,-0.396C0.478,-0.364 0.418,-0.348 0.342,-0.348L0.179,-0.348L0.179,-0.022L0.113,-0.022L0.113,-0.751ZM0.179,-0.696L0.179,-0.402L0.338,-0.402C0.464,-0.402 0.527,-0.451 0.527,-0.551C0.527,-0.647 0.466,-0.696 0.344,-0.696L0.179,-0.696Z" style="fill:white;fill-rule:nonzero;"/>
                    </g>
                    <g transform="matrix(24,0,0,24,15.5039,0)">
                        <path d="M0.327,-0.534L0.322,-0.472C0.287,-0.472 0.255,-0.457 0.225,-0.427C0.197,-0.399 0.175,-0.361 0.161,-0.315L0.161,-0.022L0.1,-0.022L0.1,-0.522L0.159,-0.522L0.159,-0.392C0.179,-0.442 0.205,-0.479 0.238,-0.504C0.266,-0.524 0.295,-0.534 0.327,-0.534Z" style="fill:white;fill-rule:nonzero;"/>
                    </g>
                    <g transform="matrix(24,0,0,24,24.2344,0)">
                        <path d="M0.492,-0.267L0.129,-0.267C0.129,-0.197 0.146,-0.143 0.18,-0.105C0.208,-0.074 0.244,-0.059 0.288,-0.059C0.36,-0.059 0.407,-0.094 0.43,-0.166L0.488,-0.144C0.453,-0.055 0.386,-0.01 0.287,-0.01C0.217,-0.01 0.162,-0.036 0.122,-0.089C0.086,-0.136 0.068,-0.197 0.068,-0.271C0.068,-0.356 0.091,-0.423 0.137,-0.472C0.175,-0.513 0.224,-0.534 0.282,-0.534C0.348,-0.534 0.4,-0.509 0.439,-0.458C0.474,-0.412 0.492,-0.354 0.492,-0.283L0.492,-0.267ZM0.43,-0.314C0.425,-0.372 0.408,-0.416 0.379,-0.446C0.354,-0.472 0.322,-0.484 0.283,-0.484C0.238,-0.484 0.201,-0.467 0.173,-0.432C0.149,-0.402 0.134,-0.362 0.131,-0.314L0.43,-0.314Z" style="fill:white;fill-rule:nonzero;"/>
                    </g>
                    <g transform="matrix(24,0,0,24,37.6289,0)">
                        <path d="M0.466,-0.391L0.405,-0.373C0.387,-0.447 0.345,-0.483 0.278,-0.483C0.229,-0.483 0.191,-0.463 0.164,-0.421C0.141,-0.384 0.129,-0.334 0.129,-0.273C0.129,-0.201 0.144,-0.147 0.175,-0.109C0.201,-0.077 0.235,-0.061 0.278,-0.061C0.348,-0.061 0.392,-0.098 0.41,-0.173L0.47,-0.153C0.438,-0.057 0.375,-0.01 0.278,-0.01C0.209,-0.01 0.155,-0.036 0.116,-0.089C0.082,-0.136 0.065,-0.196 0.065,-0.271C0.065,-0.356 0.087,-0.423 0.132,-0.472C0.17,-0.513 0.219,-0.534 0.278,-0.534C0.327,-0.534 0.368,-0.521 0.401,-0.493C0.432,-0.469 0.453,-0.435 0.466,-0.391Z" style="fill:white;fill-rule:nonzero;"/>
                    </g>
                    <g transform="matrix(24,0,0,24,50.0156,0)">
                        <path d="M0.162,-0.522L0.162,-0.022L0.1,-0.022L0.1,-0.522L0.162,-0.522ZM0.177,-0.723L0.177,-0.63L0.085,-0.63L0.085,-0.723L0.177,-0.723Z" style="fill:white;fill-rule:nonzero;"/>
                    </g>
                    <g transform="matrix(24,0,0,24,56.3086,0)">
                        <path d="M0.431,-0.416L0.371,-0.395C0.352,-0.455 0.312,-0.485 0.249,-0.485C0.211,-0.485 0.182,-0.477 0.162,-0.46C0.144,-0.446 0.135,-0.428 0.135,-0.405C0.135,-0.377 0.144,-0.357 0.162,-0.343C0.177,-0.331 0.205,-0.321 0.245,-0.312L0.285,-0.303C0.347,-0.289 0.389,-0.27 0.413,-0.247C0.434,-0.225 0.444,-0.195 0.444,-0.157C0.444,-0.111 0.427,-0.075 0.391,-0.048C0.358,-0.022 0.312,-0.01 0.254,-0.01C0.154,-0.01 0.088,-0.05 0.057,-0.131L0.117,-0.154C0.139,-0.09 0.185,-0.059 0.255,-0.059C0.302,-0.059 0.336,-0.069 0.358,-0.09C0.375,-0.107 0.383,-0.127 0.383,-0.151C0.383,-0.182 0.375,-0.204 0.357,-0.218C0.34,-0.23 0.309,-0.242 0.264,-0.252L0.224,-0.261C0.165,-0.275 0.125,-0.293 0.103,-0.318C0.085,-0.338 0.076,-0.365 0.076,-0.4C0.076,-0.442 0.093,-0.475 0.125,-0.5C0.156,-0.523 0.198,-0.534 0.25,-0.534C0.34,-0.534 0.401,-0.495 0.431,-0.416Z" style="fill:white;fill-rule:nonzero;"/>
                    </g>
                    <g transform="matrix(24,0,0,24,68.5195,0)">
                        <path d="M0.162,-0.522L0.162,-0.022L0.1,-0.022L0.1,-0.522L0.162,-0.522ZM0.177,-0.723L0.177,-0.63L0.085,-0.63L0.085,-0.723L0.177,-0.723Z" style="fill:white;fill-rule:nonzero;"/>
                    </g>
                    <g transform="matrix(24,0,0,24,74.8125,0)">
                        <path d="M0.16,-0.522L0.16,-0.429C0.216,-0.499 0.277,-0.534 0.343,-0.534C0.388,-0.534 0.423,-0.52 0.449,-0.492C0.472,-0.467 0.483,-0.434 0.483,-0.393L0.483,-0.022L0.42,-0.022L0.42,-0.367C0.42,-0.441 0.389,-0.478 0.327,-0.478C0.269,-0.478 0.214,-0.443 0.162,-0.374L0.162,-0.022L0.1,-0.022L0.1,-0.522L0.16,-0.522Z" style="fill:white;fill-rule:nonzero;"/>
                    </g>
                    <g transform="matrix(24,0,0,24,88.7344,0)">
                        <path d="M0.505,-0.583L0.5,-0.526C0.473,-0.526 0.452,-0.522 0.435,-0.515C0.422,-0.509 0.408,-0.5 0.394,-0.486C0.429,-0.458 0.447,-0.419 0.447,-0.369C0.447,-0.315 0.427,-0.273 0.388,-0.243C0.355,-0.217 0.314,-0.204 0.264,-0.204C0.234,-0.204 0.206,-0.209 0.181,-0.22C0.147,-0.201 0.131,-0.181 0.131,-0.16C0.131,-0.142 0.138,-0.13 0.152,-0.124C0.166,-0.117 0.194,-0.112 0.237,-0.108L0.335,-0.098C0.403,-0.091 0.45,-0.076 0.476,-0.053C0.495,-0.035 0.505,-0.011 0.505,0.02C0.505,0.064 0.483,0.099 0.438,0.124C0.397,0.147 0.341,0.159 0.271,0.159C0.196,0.159 0.139,0.146 0.1,0.121C0.067,0.099 0.05,0.071 0.05,0.036C0.05,0.011 0.06,-0.011 0.081,-0.031C0.098,-0.049 0.122,-0.062 0.152,-0.072C0.101,-0.083 0.076,-0.107 0.076,-0.145C0.076,-0.178 0.099,-0.21 0.145,-0.242C0.103,-0.272 0.082,-0.314 0.082,-0.368C0.082,-0.421 0.102,-0.463 0.143,-0.495C0.176,-0.521 0.217,-0.534 0.265,-0.534C0.302,-0.534 0.334,-0.527 0.361,-0.511C0.38,-0.538 0.402,-0.557 0.426,-0.568C0.447,-0.578 0.474,-0.583 0.505,-0.583ZM0.265,-0.49C0.227,-0.49 0.197,-0.478 0.173,-0.454C0.152,-0.432 0.141,-0.403 0.141,-0.368C0.141,-0.329 0.155,-0.298 0.182,-0.275C0.204,-0.257 0.231,-0.248 0.264,-0.248C0.302,-0.248 0.332,-0.26 0.355,-0.284C0.377,-0.306 0.388,-0.334 0.388,-0.368C0.388,-0.409 0.374,-0.44 0.347,-0.462C0.325,-0.481 0.297,-0.49 0.265,-0.49ZM0.205,-0.06C0.139,-0.042 0.107,-0.013 0.107,0.028C0.107,0.059 0.124,0.081 0.159,0.097C0.188,0.109 0.226,0.115 0.273,0.115C0.332,0.115 0.378,0.106 0.409,0.086C0.435,0.07 0.448,0.05 0.448,0.026C0.448,0.004 0.438,-0.012 0.419,-0.023C0.4,-0.035 0.367,-0.043 0.32,-0.048L0.205,-0.06Z" style="fill:white;fill-rule:nonzero;"/>
                    </g>
                </g>
            </g>
            <rect x="1121" y="62" width="159" height="38" style="fill:rgb(89,89,89);"/>
            <g transform="matrix(1,0,0,1,1130.98,89)">
                <g transform="matrix(24,0,0,24,0,0)">
                    <path d="M0.322,-0.749L0.322,-0.075L0.457,-0.075L0.457,-0.022L0.116,-0.022L0.116,-0.075L0.26,-0.075L0.26,-0.681C0.218,-0.652 0.169,-0.627 0.113,-0.606L0.102,-0.664C0.157,-0.683 0.214,-0.711 0.271,-0.749L0.322,-0.749Z" style="fill:white;fill-rule:nonzero;"/>
                </g>
                <g transform="matrix(24,0,0,24,13.3476,0)">
                    <rect x="0.079" y="-0.124" width="0.1" height="0.102" style="fill:white;fill-rule:nonzero;"/>
                </g>
                <g transform="matrix(1,0,0,1,36,0)">
                    <g transform="matrix(24,0,0,24,0,0)">
                        <path d="M0.113,-0.751L0.348,-0.751C0.435,-0.751 0.5,-0.731 0.542,-0.692C0.578,-0.658 0.596,-0.612 0.596,-0.552C0.596,-0.484 0.571,-0.432 0.522,-0.396C0.478,-0.364 0.418,-0.348 0.342,-0.348L0.179,-0.348L0.179,-0.022L0.113,-0.022L0.113,-0.751ZM0.179,-0.696L0.179,-0.402L0.338,-0.402C0.464,-0.402 0.527,-0.451 0.527,-0.551C0.527,-0.647 0.466,-0.696 0.344,-0.696L0.179,-0.696Z" style="fill:white;fill-rule:nonzero;"/>
                    </g>
                    <g transform="matrix(24,0,0,24,15.5039,0)">
                        <path d="M0.327,-0.534L0.322,-0.472C0.287,-0.472 0.255,-0.457 0.225,-0.427C0.197,-0.399 0.175,-0.361 0.161,-0.315L0.161,-0.022L0.1,-0.022L0.1,-0.522L0.159,-0.522L0.159,-0.392C0.179,-0.442 0.205,-0.479 0.238,-0.504C0.266,-0.524 0.295,-0.534 0.327,-0.534Z" style="fill:white;fill-rule:nonzero;"/>
                    </g>
                    <g transform="matrix(24,0,0,24,24.2344,0)">
                        <path d="M0.492,-0.267L0.129,-0.267C0.129,-0.197 0.146,-0.143 0.18,-0.105C0.208,-0.074 0.244,-0.059 0.288,-0.059C0.36,-0.059 0.407,-0.094 0.43,-0.166L0.488,-0.144C0.453,-0.055 0.386,-0.01 0.287,-0.01C0.217,-0.01 0.162,-0.036 0.122,-0.089C0.086,-0.136 0.068,-0.197 0.068,-0.271C0.068,-0.356 0.091,-0.423 0.137,-0.472C0.175,-0.513 0.224,-0.534 0.282,-0.534C0.348,-0.534 0.4,-0.509 0.439,-0.458C0.474,-0.412 0.492,-0.354 0.492,-0.283L0.492,-0.267ZM0.43,-0.314C0.425,-0.372 0.408,-0.416 0.379,-0.446C0.354,-0.472 0.322,-0.484 0.283,-0.484C0.238,-0.484 0.201,-0.467 0.173,-0.432C0.149,-0.402 0.134,-0.362 0.131,-0.314L0.43,-0.314Z" style="fill:white;fill-rule:nonzero;"/>
                    </g>
                    <g transform="matrix(24,0,0,24,37.6289,0)">
                        <path d="M0.466,-0.391L0.405,-0.373C0.387,-0.447 0.345,-0.483 0.278,-0.483C0.229,-0.483 0.191,-0.463 0.164,-0.421C0.141,-0.384 0.129,-0.334 0.129,-0.273C0.129,-0.201 0.144,-0.147 0.175,-0.109C0.201,-0.077 0.235,-0.061 0.278,-0.061C0.348,-0.061 0.392,-0.098 0.41,-0.173L0.47,-0.153C0.438,-0.057 0.375,-0.01 0.278,-0.01C0.209,-0.01 0.155,-0.036 0.116,-0.089C0.082,-0.136 0.065,-0.196 0.065,-0.271C0.065,-0.356 0.087,-0.423 0.132,-0.472C0.17,-0.513 0.219,-0.534 0.278,-0.534C0.327,-0.534 0.368,-0.521 0.401,-0.493C0.432,-0.469 0.453,-0.435 0.466,-0.391Z" style="fill:white;fill-rule:nonzero;"/>
                    </g>
                    <g transform="matrix(24,0,0,24,50.0156,0)">
                        <path d="M0.162,-0.522L0.162,-0.022L0.1,-0.022L0.1,-0.522L0.162,-0.522ZM0.177,-0.723L0.177,-0.63L0.085,-0.63L0.085,-0.723L0.177,-0.723Z" style="fill:white;fill-rule:nonzero;"/>
                    </g>
                    <g transform="matrix(24,0,0,24,56.3086,0)">
                        <path d="M0.431,-0.416L0.371,-0.395C0.352,-0.455 0.312,-0.485 0.249,-0.485C0.211,-0.485 0.182,-0.477 0.162,-0.46C0.144,-0.446 0.135,-0.428 0.135,-0.405C0.135,-0.377 0.144,-0.357 0.162,-0.343C0.177,-0.331 0.205,-0.321 0.245,-0.312L0.285,-0.303C0.347,-0.289 0.389,-0.27 0.413,-0.247C0.434,-0.225 0.444,-0.195 0.444,-0.157C0.444,-0.111 0.427,-0.075 0.391,-0.048C0.358,-0.022 0.312,-0.01 0.254,-0.01C0.154,-0.01 0.088,-0.05 0.057,-0.131L0.117,-0.154C0.139,-0.09 0.185,-0.059 0.255,-0.059C0.302,-0.059 0.336,-0.069 0.358,-0.09C0.375,-0.107 0.383,-0.127 0.383,-0.151C0.383,-0.182 0.375,-0.204 0.357,-0.218C0.34,-0.23 0.309,-0.242 0.264,-0.252L0.224,-0.261C0.165,-0.275 0.125,-0.293 0.103,-0.318C0.085,-0.338 0.076,-0.365 0.076,-0.4C0.076,-0.442 0.093,-0.475 0.125,-0.5C0.156,-0.523 0.198,-0.534 0.25,-0.534C0.34,-0.534 0.401,-0.495 0.431,-0.416Z" style="fill:white;fill-rule:nonzero;"/>
                    </g>
                    <g transform="matrix(24,0,0,24,68.5195,0)">
                        <path d="M0.162,-0.522L0.162,-0.022L0.1,-0.022L0.1,-0.522L0.162,-0.522ZM0.177,-0.723L0.177,-0.63L0.085,-0.63L0.085,-0.723L0.177,-0.723Z" style="fill:white;fill-rule:nonzero;"/>
                    </g>
                    <g transform="matrix(24,0,0,24,74.8125,0)">
                        <path d="M0.16,-0.522L0.16,-0.429C0.216,-0.499 0.277,-0.534 0.343,-0.534C0.388,-0.534 0.423,-0.52 0.449,-0.492C0.472,-0.467 0.483,-0.434 0.483,-0.393L0.483,-0.022L0.42,-0.022L0.42,-0.367C0.42,-0.441 0.389,-0.478 0.327,-0.478C0.269,-0.478 0.214,-0.443 0.162,-0.374L0.162,-0.022L0.1,-0.022L0.1,-0.522L0.16,-0.522Z" style="fill:white;fill-rule:nonzero;"/>
                    </g>
                    <g transform="matrix(24,0,0,24,88.7344,0)">
                        <path d="M0.505,-0.583L0.5,-0.526C0.473,-0.526 0.452,-0.522 0.435,-0.515C0.422,-0.509 0.408,-0.5 0.394,-0.486C0.429,-0.458 0.447,-0.419 0.447,-0.369C0.447,-0.315 0.427,-0.273 0.388,-0.243C0.355,-0.217 0.314,-0.204 0.264,-0.204C0.234,-0.204 0.206,-0.209 0.181,-0.22C0.147,-0.201 0.131,-0.181 0.131,-0.16C0.131,-0.142 0.138,-0.13 0.152,-0.124C0.166,-0.117 0.194,-0.112 0.237,-0.108L0.335,-0.098C0.403,-0.091 0.45,-0.076 0.476,-0.053C0.495,-0.035 0.505,-0.011 0.505,0.02C0.505,0.064 0.483,0.099 0.438,0.124C0.397,0.147 0.341,0.159 0.271,0.159C0.196,0.159 0.139,0.146 0.1,0.121C0.067,0.099 0.05,0.071 0.05,0.036C0.05,0.011 0.06,-0.011 0.081,-0.031C0.098,-0.049 0.122,-0.062 0.152,-0.072C0.101,-0.083 0.076,-0.107 0.076,-0.145C0.076,-0.178 0.099,-0.21 0.145,-0.242C0.103,-0.272 0.082,-0.314 0.082,-0.368C0.082,-0.421 0.102,-0.463 0.143,-0.495C0.176,-0.521 0.217,-0.534 0.265,-0.534C0.302,-0.534 0.334,-0.527 0.361,-0.511C0.38,-0.538 0.402,-0.557 0.426,-0.568C0.447,-0.578 0.474,-0.583 0.505,-0.583ZM0.265,-0.49C0.227,-0.49 0.197,-0.478 0.173,-0.454C0.152,-0.432 0.141,-0.403 0.141,-0.368C0.141,-0.329 0.155,-0.298 0.182,-0.275C0.204,-0.257 0.231,-0.248 0.264,-0.248C0.302,-0.248 0.332,-0.26 0.355,-0.284C0.377,-0.306 0.388,-0.334 0.388,-0.368C0.388,-0.409 0.374,-0.44 0.347,-0.462C0.325,-0.481 0.297,-0.49 0.265,-0.49ZM0.205,-0.06C0.139,-0.042 0.107,-0.013 0.107,0.028C0.107,0.059 0.124,0.081 0.159,0.097C0.188,0.109 0.226,0.115 0.273,0.115C0.332,0.115 0.378,0.106 0.409,0.086C0.435,0.07 0.448,0.05 0.448,0.026C0.448,0.004 0.438,-0.012 0.419,-0.023C0.4,-0.035 0.367,-0.043 0.32,-0.048L0.205,-0.06Z" style="fill:white;fill-rule:nonzero;"/>
                    </g>
                </g>
            </g>
        </g>
    </g>
</svg>
